<svg xmlns="http://www.w3.org/2000/svg" xmlns:xlink="http://www.w3.org/1999/xlink" width="165" height="165" viewBox="0 0 165 165"><defs><path id="iqh7a" d="M724.33 334.37l79.3 79.3-48.8 48.8a8.64 8.64 0 0 1-12.2 0l-67.1-67.1a8.62 8.62 0 0 1 0-12.2z"/><path id="iqh7b" d="M727.85 333.08l77.48 77 15.72-15.8a40.37 40.37 0 0 0 11.92-30.17l-1.94-51.52a5.9 5.9 0 0 0-5.7-5.66l-52.15-1.9a40.94 40.94 0 0 0-30.3 11.8z"/><path id="iqh7c" d="M756.1 407.53c-2.74 6.24-9.17 10.27-16.37 10.27-7.36 0-13.83-4.05-16.48-10.33a2.1 2.1 0 0 1 1.16-2.75 2.14 2.14 0 0 1 2.8 1.14c1.99 4.7 6.9 7.73 12.52 7.73 5.5 0 10.38-3.04 12.44-7.74a2.16 2.16 0 0 1 2.82-1.1 2.1 2.1 0 0 1 1.12 2.78zm-10.47-17.84a4.4 4.4 0 0 1 4.43-4.36 4.4 4.4 0 0 1 4.43 4.36 4.4 4.4 0 0 1-4.43 4.35 4.4 4.4 0 0 1-4.43-4.35zm-20.08 0a4.4 4.4 0 0 1 4.43-4.36 4.4 4.4 0 0 1 4.43 4.36 4.4 4.4 0 0 1-4.43 4.35 4.4 4.4 0 0 1-4.43-4.35z"/></defs><g><g transform="translate(-671 -302)"><g><use fill="#242b36" xlink:href="#iqh7a"/><use fill="#fff" fill-opacity="0" stroke="#242b36" stroke-miterlimit="50" stroke-width="3.05" xlink:href="#iqh7a"/></g><g><use fill="#fff" fill-opacity="0" stroke="#242b36" stroke-miterlimit="50" stroke-width="6.1" xlink:href="#iqh7b"/></g></g><g transform="translate(-671 -302)"><g><use fill="#fff" xlink:href="#iqh7c"/></g></g></g></svg>