<?xml version="1.0" encoding="UTF-8"?>
<svg width="19px" height="20px" viewBox="0 0 19 20" version="1.1" xmlns="http://www.w3.org/2000/svg" xmlns:xlink="http://www.w3.org/1999/xlink">
    <!-- Generator: Sketch 50.2 (55047) - http://www.bohemiancoding.com/sketch -->
    <title>megaphone</title>
    <desc>Created with Sketch.</desc>
    <defs>
        <linearGradient x1="8.50965532%" y1="-11.3751594%" x2="60.806686%" y2="54.9139031%" id="linearGradient-1">
            <stop stop-color="#F9FAFB" offset="0%"></stop>
            <stop stop-color="#FFFFFF" offset="100%"></stop>
        </linearGradient>
    </defs>
    <g id="Page-1" stroke="none" stroke-width="1" fill="none" fill-rule="evenodd">
        <g id="Mailtag.io-Dashboard" transform="translate(-1172.000000, -51.000000)" fill="#637282" fill-rule="nonzero">
            <g transform="translate(1.000000, 0.000000)" id="Header">
                <g transform="translate(243.000000, 34.000000)">
                    <g id="megaphone" transform="translate(928.000000, 17.000000)">
                        <path d="M17.2777701,6.69911111 C15.5485517,2.60555556 12.7662529,-0.512444444 11.3582874,0.0702222222 C8.96756322,1.05888889 12.7824138,5.80733333 1.0425977,10.6631111 C0.0286091954,11.0824444 -0.228436782,12.7611111 0.195896552,13.7646667 C0.619356322,14.768 2.00657471,15.7668889 3.021,15.3475556 C3.19636782,15.2751111 3.84083908,15.0642222 3.84083908,15.0642222 C4.56502299,16.0531111 5.32305747,15.4666667 5.59189655,16.0951111 C5.91489655,16.8502222 6.61767816,18.4917778 6.85616092,19.0502222 C7.09551724,19.6082222 7.63712644,20.1251111 8.03044828,19.9731111 C8.42245977,19.8211111 9.75791954,19.304 10.268954,19.1062222 C10.7795517,18.9084444 10.9014138,18.4453333 10.7454828,18.0797778 C10.5771034,17.686 9.88677011,17.5704444 9.69021839,17.1108889 C9.49322989,16.6513333 8.84985057,15.1784444 8.66487356,14.7142222 C8.41328736,14.0828889 8.94768966,13.5693333 9.72406897,13.4871111 C15.0674368,12.9204444 16.0663563,16.2784444 17.8855517,15.5255556 C19.2932989,14.9428889 19.0065517,10.7928889 17.2777701,6.69911111 Z M16.6758851,13.34 C16.3631494,13.4693333 14.2602644,11.7815556 12.9162874,8.59911111 C11.5727471,5.41733333 11.7415632,2.50844444 12.0538621,2.37933333 C12.3661609,2.25 14.4172874,4.286 15.761046,7.46777778 C17.1045862,10.6495556 16.9886207,13.2106667 16.6758851,13.34 Z" id="Shape"></path>
                    </g>
                </g>
            </g>
        </g>
    </g>
</svg>