<svg id="illustration" xmlns="http://www.w3.org/2000/svg" width="1100" height="400" viewBox="0 0 1100 400">
  <defs>
    <style>
      .cls-1, .cls-10, .cls-6, .cls-9 {
        fill: #ddeefe;
      }

      .cls-1, .cls-2, .cls-3, .cls-4, .cls-5, .cls-6, .cls-7, .cls-8 {
        fill-rule: evenodd;
      }

      .cls-11, .cls-2, .cls-3, .cls-4 {
        fill: none;
      }

      .cls-2 {
        stroke: #42a9f7;
        stroke-linecap: round;
        stroke-linejoin: round;
      }

      .cls-11, .cls-13, .cls-2, .cls-3, .cls-4, .cls-6, .cls-7, .cls-8, .cls-9 {
        stroke-width: 1.87px;
      }

      .cls-11, .cls-13, .cls-3, .cls-4, .cls-6, .cls-7, .cls-8, .cls-9 {
        stroke: #45aaf7;
      }

      .cls-3 {
        stroke-dasharray: 7.48 3.74;
      }

      .cls-12, .cls-13, .cls-5, .cls-7 {
        fill: #fff;
      }

      .cls-8 {
        fill: #9337aa;
      }
    </style>
  </defs>
  <g id="clouds">
    <path class="cls-1" d="M84.667,87s3-7.229,10.649-4.468c0,0,4.73-19.5,23.073-8.043,0,0,.519-23.86,26.623-25.022,0,0,19.821-.511,25.736,19.66,0,0,16.941,1.564,15.087,17.873H84.667Z"/>
    <path id="Shape_47_copy" data-name="Shape 47 copy" class="cls-2" d="M82,82.531s3-7.229,10.649-4.468c0,0,4.73-19.5,23.074-8.043,0,0,.519-23.86,26.623-25.022,0,0,19.82-.511,25.736,19.66,0,0,16.941,1.564,15.087,17.873H82Z"/>
  </g>
  <g id="paper_rocket" data-name="paper rocket">
    <path class="cls-1" d="M369.078,40.7L277.189,64.266l22.089,6.982,5.3,27.056L322.25,85.212l13.253,9.6Z"/>
    <path class="cls-2" d="M297.511,66.884l65.382-28.8"/>
    <path class="cls-2" d="M302.812,92.194l10.6-15.71,49.478-38.4"/>
    <path class="cls-2" d="M319.6,81.721l-5.3-4.364"/>
    <path id="Shape_43_copy" data-name="Shape 43 copy" class="cls-2" d="M366.427,37.21L274.539,60.775l22.088,6.982,5.3,27.056L319.6,81.721l13.254,9.6Z"/>
  </g>
  <path id="dotted_line" data-name="dotted line" class="cls-3" d="M301,98s-26.95,46.51-92,14c0,0-35.12-13.542-60,0,0,0-50.552,26.456,0,84"/>
  <path class="cls-3" d="M687,78s38.706,35.638,85,2c0,0,21.49-21.589,7-32,0,0-35.031-19.023-51,53,0,0-2.607,35.023,24,65,0,0,15.5,23.12,8,37"/>
  <g id="paper_rocket_copy" data-name="paper rocket copy">
    <path class="cls-1" d="M636.979,31.012l69.027,17.864-16.593,5.293-3.983,20.51-13.274-9.924L662.2,72.032Z"/>
    <path class="cls-2" d="M684.767,54.83L634.988,34.32"/>
    <path class="cls-2" d="M680.784,74.017L672.82,62.108,635.652,34.982"/>
    <path class="cls-2" d="M668.174,64.093l3.982-3.308"/>
    <path id="Shape_43_copy-2" data-name="Shape 43 copy" class="cls-2" d="M633,32.335L702.023,50.2,685.43,55.492,681.448,76l-13.274-9.924-9.956,7.278Z"/>
  </g>
  <g id="cloud2">
    <path class="cls-1" d="M476.6,148s2.939-7.057,10.447-4.362c0,0,4.64-19.031,22.636-7.851,0,0,.509-23.292,26.118-24.426,0,0,19.444-.5,25.247,19.192,0,0,16.619,1.526,14.8,17.447H476.6Z"/>
    <path id="Shape_47_copy-2" data-name="Shape 47 copy" class="cls-2" d="M473.992,143.639s2.939-7.057,10.447-4.362c0,0,4.641-19.031,22.636-7.851,0,0,.509-23.292,26.118-24.426,0,0,19.444-.5,25.247,19.192,0,0,16.62,1.526,14.8,17.447H473.992Z"/>
  </g>
  <g id="china_wall" data-name="china wall">
    <path class="cls-4" d="M402.561,238.177s22.527,4.666,27.915,18.251"/>
    <path class="cls-4" d="M444.949,212.192S467.842,196.139,504,229.369"/>
    <path class="cls-4" d="M397.708,212.192s-66.76-2.787-81.6-19.324"/>
    <path class="cls-4" d="M326.847,187.5s66.919,20.034,83.745,11.809"/>
    <g id="gate_2" data-name="gate 2">
      <g id="fort_" data-name="fort ">
        <path class="cls-5" d="M403.371,219.707V152.494s7.918-3.237,9.677,2.24c0,0,1.582-3.81,7.444-3.734,0,0,4.87.916,5.955,4.481,0,0,1.889-4,5.211-3.734a5.445,5.445,0,0,1,5.211,3.734s2.089-3.709,5.955-3.734a7.179,7.179,0,0,1,5.955,3.734,6.966,6.966,0,0,1,5.956-3.734s3.261-.038,4.466,1.493v66.467h-55.83Z"/>
        <path id="Shape_25_copy_3" data-name="Shape 25 copy 3" class="cls-1" d="M407.371,219.707V152.494s7.918-3.237,9.677,2.24c0,0,1.582-3.81,7.444-3.734,0,0,4.87.916,5.955,4.481,0,0,1.889-4,5.211-3.734a5.445,5.445,0,0,1,5.211,3.734s2.089-3.709,5.955-3.734a7.179,7.179,0,0,1,5.955,3.734,6.966,6.966,0,0,1,5.956-3.734s3.261-.038,4.466,1.493v66.467h-55.83Z"/>
        <path id="Shape_25_copy_2" data-name="Shape 25 copy 2" class="cls-4" d="M403.076,219.707V152.494s7.918-3.237,9.677,2.24c0,0,1.582-3.81,7.445-3.734,0,0,4.869.916,5.955,4.481,0,0,1.888-4,5.211-3.734a5.444,5.444,0,0,1,5.21,3.734s2.09-3.709,5.956-3.734a7.179,7.179,0,0,1,5.955,3.734,6.963,6.963,0,0,1,5.955-3.734s3.262-.038,4.466,1.493v66.467h-55.83Z"/>
        <path class="cls-6" d="M404.15,175.691h53.683v3.221H404.15v-3.221Z"/>
        <path class="cls-6" d="M284.974,254.06"/>
        <path class="cls-7" d="M410.52,172.658v-7.469s0.759-2.987,2.978-2.987a3.191,3.191,0,0,1,3.722,2.987v7.469h-6.7Z"/>
        <path id="Shape_27_copy" data-name="Shape 27 copy" class="cls-7" d="M427.642,172.658v-7.469s0.758-2.987,2.977-2.987a3.191,3.191,0,0,1,3.722,2.987v7.469h-6.7Z"/>
        <path id="Shape_27_copy_2" data-name="Shape 27 copy 2" class="cls-7" d="M444.018,172.658v-7.469S444.777,162.2,447,162.2a3.191,3.191,0,0,1,3.722,2.987v7.469h-6.7Z"/>
        <path class="cls-7" d="M440.654,219.707V196.089s-0.3-12.854-10.736-12.883a11.976,11.976,0,0,0-10.737,11.809v24.692h21.473Z"/>
      </g>
      <path class="cls-6" d="M411.666,197.162s-14.988,28.9-132.06,35.427c0,0,108.423,8.974,132.06-12.882V197.162Z"/>
      <path class="cls-7" d="M421.328,221.854v-20.4s-32.254,32.955-143.87,32.207C277.458,233.663,392,240.18,421.328,221.854Z"/>
      <path class="cls-7" d="M440.654,191.8s-11.952,31.612-74.082,38.647c0,0,55.46,2.843,74.082-18.25C440.654,212.192,440.582,199.017,440.654,191.8Z"/>
      <path class="cls-5" d="M284.974,254.06s140.144,1.9,164.269-36.5V192.868s-5.234,22.9-41.872,31.133c0,0-83.328,17.357-132.06,7.515l1.074,22.544h8.589Z"/>
      <path id="Shape_32_copy_2" data-name="Shape 32 copy 2" class="cls-1" d="M287.121,258.354s140.144,1.9,164.27-36.5V197.162s-5.234,22.9-41.873,31.133c0,0-83.328,17.357-132.06,7.515l1.074,22.544h8.589Z"/>
      <path id="Shape_32_copy" data-name="Shape 32 copy" class="cls-4" d="M284.974,254.06s140.144,1.9,164.269-36.5V192.868s-5.234,22.9-41.872,31.133c0,0-83.328,17.357-132.06,7.515l1.074,22.544h8.589Z"/>
    </g>
    <g id="gate_1" data-name="gate 1">
      <g id="fort">
        <path class="cls-1" d="M201.229,277.678V181.059s11.42-4.653,13.957,3.221c0,0,2.281-5.477,10.737-5.368,0,0,7.023,1.317,8.589,6.441,0,0,2.724-5.754,7.516-5.367a7.857,7.857,0,0,1,7.515,5.367s3.014-5.331,8.59-5.367a10.362,10.362,0,0,1,8.589,5.367,10.042,10.042,0,0,1,8.589-5.367s4.7-.055,6.442,2.147v95.545H201.229Z"/>
        <path id="Shape_25_copy" data-name="Shape 25 copy" class="cls-4" d="M195.861,274.457V177.839s11.419-4.654,13.957,3.22c0,0,2.281-5.477,10.737-5.368,0,0,7.023,1.317,8.589,6.442,0,0,2.724-5.755,7.515-5.368a7.857,7.857,0,0,1,7.516,5.368s3.013-5.332,8.589-5.368a10.364,10.364,0,0,1,8.59,5.368,10.042,10.042,0,0,1,8.589-5.368s4.7-.055,6.442,2.147v95.545H195.861Z"/>
        <path class="cls-4" d="M195.861,210.045h80.524v6.441H195.861v-6.441Z"/>
        <path class="cls-7" d="M206.6,206.824V196.089s1.095-4.294,4.295-4.294a4.6,4.6,0,0,1,5.368,4.294v10.735H206.6Z"/>
        <path id="Shape_27_copy-2" data-name="Shape 27 copy" class="cls-7" d="M231.291,206.824V196.089s1.095-4.294,4.3-4.294a4.6,4.6,0,0,1,5.368,4.294v10.735h-9.663Z"/>
        <path id="Shape_27_copy_2-2" data-name="Shape 27 copy 2" class="cls-7" d="M254.912,206.824V196.089s1.094-4.294,4.294-4.294a4.6,4.6,0,0,1,5.369,4.294v10.735h-9.663Z"/>
        <path class="cls-7" d="M255.985,272.31l1.074-37.574s-5.162-16.6-21.473-16.1c0,0-18.19.884-19.326,16.1l-1.074,38.648Z"/>
      </g>
      <g>
        <path id="Shape_29_copy_2" data-name="Shape 29 copy 2" class="cls-5" d="M265.648,230.442L267.8,264.8s43.1,62.094,85.892,73c0,0,11.18,13.974,20.4,13.956,15.79-.03,20.4,0,20.4,0V306.664S330.421,301.406,265.648,230.442Z"/>
        <path id="Shape_29_copy_6" data-name="Shape 29 copy 6" class="cls-1" d="M271.017,230.442l2.147,34.353s43.1,62.094,85.892,73c0,0,11.18,13.974,20.4,13.956,15.79-.03,20.4,0,20.4,0V306.664S335.789,301.406,271.017,230.442Z"/>
        <path id="Shape_29_copy_5" data-name="Shape 29 copy 5" class="cls-4" d="M265.648,230.442L267.8,264.8s43.1,62.094,85.892,73c0,0,11.18,13.974,20.4,13.956,15.79-.03,20.4,0,20.4,0V306.664S330.421,301.406,265.648,230.442Z"/>
        <path id="Shape_29_copy_2-2" data-name="Shape 29 copy 2" class="cls-7" d="M255.985,234.736l-4.294,44.015s60.283,61.02,103.071,71.928l23.62,1.073-1.073-38.647S320.758,305.7,255.985,234.736Z"/>
      </g>
      <g>
        <path class="cls-7" d="M216.26,230.442L215.186,264.8s43.1,62.094,85.893,73c0,0,11.18,15.077,20.4,15.03,13.958-.072,20.4,0,20.4,0L340.8,307.737S281.033,301.406,216.26,230.442Z"/>
        <path id="Shape_29_copy" data-name="Shape 29 copy" class="cls-5" d="M206.6,233.663V276.6s52.768,63.167,95.556,74.075a31.567,31.567,0,0,0,9.662,2.147c5.924,0.247,10.737,0,10.737,0l-1.074-40.8S271.37,304.627,206.6,233.663Z"/>
        <path id="Shape_29_copy_4" data-name="Shape 29 copy 4" class="cls-1" d="M211.965,234.736v42.942s52.768,63.167,95.556,74.074a31.535,31.535,0,0,0,9.663,2.147c5.923,0.248,10.736,0,10.736,0l-1.073-40.794S276.738,305.7,211.965,234.736Z"/>
        <path id="Shape_29_copy_3" data-name="Shape 29 copy 3" class="cls-4" d="M206.6,233.663V276.6s52.768,63.167,95.556,74.075a31.567,31.567,0,0,0,9.662,2.147c5.924,0.247,10.737,0,10.737,0l-1.074-40.8S271.37,304.627,206.6,233.663Z"/>
      </g>
    </g>
  </g>
  <g id="forest2">
    <g id="bush1">
      <path class="cls-6" d="M390,327s-2.771-31.462-26-32c0,0,14.61,8.485,19,31Z"/>
      <path class="cls-5" d="M389,327s-15.146-29.492-41-30c0,0,31.366,18.912,31,40Z"/>
      <path id="Shape_160_copy_2" data-name="Shape 160 copy 2" class="cls-1" d="M392,333s-15.146-29.492-41-30c0,0,31.366,18.912,31,40Z"/>
      <path id="Shape_160_copy" data-name="Shape 160 copy" class="cls-4" d="M386,324s-15.146-29.492-41-30c0,0,31.366,18.912,31,40Z"/>
      <path class="cls-6" d="M381,323s-1.99-20.859,7-29c0,0-2.14,18.1,1,28Z"/>
      <path class="cls-1" d="M381,329s-10.508-21.962-29-8c0,0,23.532,1.423,23,14Z"/>
      <path id="Shape_162_copy" data-name="Shape 162 copy" class="cls-4" d="M379,325s-10.508-21.962-29-8c0,0,23.532,1.423,23,14Z"/>
    </g>
    <g id="tree2">
      <path class="cls-6" d="M390,296a34.7,34.7,0,0,0,12-14s0.354,3.648-2,9c0,0-4.711,7.983-10,9v-4Z"/>
      <path class="cls-6" d="M389,293a15.013,15.013,0,0,1-7-12s-1.827-.569-2,1c0,0,.021,11.242,8,13C388,295,388.983,296.57,389,293Z"/>
      <path class="cls-6" d="M386,325l2-51h5v49Z"/>
      <g id="leaves">
        <path class="cls-6" d="M392,262s8.182-15.914,16-2A74.659,74.659,0,0,0,392,262Z"/>
        <path class="cls-6" d="M386,256s-14.551-3.382-14,10c0,0,8.514-8.091,15-7C387,259,387.448,258.613,386,256Z"/>
        <path class="cls-6" d="M389,264s4.192-21.835,18-10C407,254,397.337,253.883,389,264Z"/>
        <path class="cls-6" d="M392,262s12.055-8.643,16,2a16.045,16.045,0,0,1,0,7s-3.684-5.66-6-5c0,0-8.572-.939-10-4"/>
        <path id="Shape_141_copy_2" data-name="Shape 141 copy 2" class="cls-1" d="M393,263s-1.126-13.751-11-14c0,0-3.452-.786-7,3,0,0,4.365.773,6,4C381,256,388.739,262.267,393,263Z"/>
        <path id="Shape_141_copy" data-name="Shape 141 copy" class="cls-4" d="M393,263s-1.126-13.751-11-14c0,0-3.452-.786-7,3,0,0,4.365.773,6,4C381,256,388.739,262.267,393,263Z"/>
        <path class="cls-6" d="M388,258s-12.488,1.385-13,13c0,0,12.3-4,16-10C391,261,390.711,256.44,388,258Z"/>
        <path class="cls-6" d="M392,267a13.22,13.22,0,0,1,8,9s5.47-2.469,0-13c0,0-8.606-5.564-9,0Z"/>
        <path class="cls-6" d="M381,274s-3.816-3.134,5-12c0,0,3.731-2.246,4,7C390,269,382.785,267.677,381,274Z"/>
        <path class="cls-5" d="M389,261s-5.265,11.235,1,18c0,0,5.47-2.212,5-16C395,263,392.352,257.638,389,261Z"/>
        <path id="Shape_144_copy_2" data-name="Shape 144 copy 2" class="cls-1" d="M392,263s-5.265,11.235,1,18c0,0,5.47-2.212,5-16C398,265,395.352,259.638,392,263Z"/>
        <path id="Shape_144_copy" data-name="Shape 144 copy" class="cls-4" d="M389,261s-5.265,11.235,1,18c0,0,5.47-2.212,5-16C395,263,392.352,257.638,389,261Z"/>
      </g>
      <g id="leaves2">
        <path class="cls-6" d="M404,280s5.861,4.5,5,8c0,0,3.96-4.188,0-11C409,277,404.69,273.563,404,280Z"/>
        <path class="cls-6" d="M403,275s-7.938-3.969-11,4c0,0,6.809-1.86,10-2Z"/>
        <path class="cls-6" d="M402,276s-2.454,10.4,1,14c0,0,4.92-2.319,3-13C406,277,404.408,272.571,402,276Z"/>
        <path class="cls-6" d="M404,278s6.063-.5,9,7c0,0,5.076-9.217-3-10A4.872,4.872,0,0,0,404,278Z"/>
        <path class="cls-6" d="M403,276s4.706-11.992,14-9c0,0-7.378,8.4-11,10Z"/>
        <path class="cls-6" d="M405,273s-10.073,3.289-9,12c0,0,.784-1.444,7-8Z"/>
      </g>
      <g id="leaves3">
        <path class="cls-6" d="M380,277s5.381-2,7,6c0,0-6.553-3.874-8-2C379,281,378.535,278.277,380,277Z"/>
        <path class="cls-6" d="M378,278a12.456,12.456,0,0,1,7-6h0s-3.9,4.582-4,7C381,279,378.825,281.8,378,278Z"/>
        <path class="cls-6" d="M380,278s-5.759-6.586-11,0c0,0,9.522.066,11,2C380,280,380.371,280.446,380,278Z"/>
        <path class="cls-6" d="M380,277s-7.848.44-7,8c0,0,6.861-5.933,9-5C382,280,384.092,277.7,380,277Z"/>
        <path class="cls-6" d="M381,277s-1.29-7.383-7-7a30.5,30.5,0,0,1,4,9S380.764,281.786,381,277Z"/>
        <path class="cls-6" d="M378,279s-2.7,4.563,0,8c0,0,1.339-5.314,4-7C382,280,380.223,275.986,378,279Z"/>
      </g>
    </g>
  </g>
  <g id="forest">
    <g id="cocnut_tree1" data-name="cocnut tree1">
      <path class="cls-4" d="M164,364s1.122-5.936,13-6c0,0,6.093-2.122,12,4A81.658,81.658,0,0,1,164,364Z"/>
      <path class="cls-4" d="M181,360s1.027-9.777,9-14c0,0-5.084,8.728-6,14h-3Z"/>
      <path class="cls-4" d="M172,360s-5.362-6.451-11-4c0,0,6.324,1.092,9,5Z"/>
      <path class="cls-4" d="M173,360s-0.608-11.869-9-14c0,0,4.29,4.418,6,14h3Z"/>
      <g id="cocnut_tree1-2" data-name="cocnut tree1">
        <path class="cls-1" d="M175,359s2.137-30.07-4-51c0,0-5.291-41.078,10-58l5-1s-12.11,18.732-8,46c0,0,5.174,26.489,7,28,0,0,3.454,24.015,2,36H175Z"/>
        <path id="Shape_116_copy" data-name="Shape 116 copy" class="cls-4" d="M171,359s2.137-30.07-4-51c0,0-5.291-41.078,10-58l5-1s-12.11,18.732-8,46c0,0,5.174,26.489,7,28,0,0,3.454,24.015,2,36H171Z"/>
        <path class="cls-6" d="M182,244s4.179-38.7,30-26c0,0-12.208,4.069-13,6,0,0-3.874-2.334-4-1l3,2-5,5s-3.845-2.73-4-1l2,2S183.853,239.154,182,244Z"/>
        <path class="cls-6" d="M182,244s7.434-30.967-19-32c0,0,3.747,5.3,4,8,0,0,8.661-.183,7,2l-5,2S180.585,239.716,182,244Z"/>
        <path class="cls-5" d="M180,245s10.811-16.245,27-14c0,0,14,2.4,19,26l-8-4s-0.175-8.341-3-9l1,8-12-4s0.827-11.976-2-10l-1,8-20,1Z"/>
        <path id="Shape_121_copy_2" data-name="Shape 121 copy 2" class="cls-1" d="M185,245s10.811-16.245,27-14c0,0,14,2.4,19,26l-8-4s-0.175-8.341-3-9l1,8-12-4s0.827-11.976-2-10l-1,8-20,1Z"/>
        <path id="Shape_121_copy" data-name="Shape 121 copy" class="cls-4" d="M182,242s10.811-16.245,27-14c0,0,14,2.4,19,26l-8-4s-0.175-8.341-3-9l1,8-12-4s0.827-11.976-2-10l-1,8-20,1Z"/>
        <path class="cls-6" d="M186,240s10.313,1.177,15,13c0,0,7.031,11.815-3,30l-2-5s3.522-6.654,3-10l-4,8-2-3s4.859-6.441,5-8l-6,6-3-5s6.712-5.529,7-7c0,0-5.7,2.314-7,5l-3-8s5.35-1.557,6-4c0,0-1.805-1.8-6,3l-6-11Z"/>
        <path class="cls-7" d="M177,253s3.061,13.231,12,5c0,0,4.792-6.221-1-10C188,248,178.954,245.2,177,253Z"/>
        <path class="cls-7" d="M182,243s7.583,14.2-9,12l-6-4Z"/>
        <path class="cls-6" d="M172,237s-16.6,13.259-18,16a6.74,6.74,0,0,0,0,4s-4.242,3.438-4,5c0,0,4.031-2.379,5-3,0,0-3.175,3.77-4,6v6l13-2,1-12s2.32,4.254,2,8c0,0,8.935-4.217,10-18l-1-7Z"/>
        <path class="cls-1" d="M180,236s-20.259-16.854-29-9c0,0-13.086,9.473-16,17l8-1s6.459-9.306,10-11c0,0-5.381,7.232-7,11h9s3.419-5.792,6-8c0,0-2.855,5.506-3,8h5s3.672-6.731,6-8c0,0-2.623,7.354-2,9l13,2S180.673,238.876,180,236Z"/>
        <path id="Shape_119_copy" data-name="Shape 119 copy" class="cls-4" d="M180,236s-20.259-16.854-29-9c0,0-13.086,9.473-16,17l8-1s6.459-9.306,10-11c0,0-5.381,7.232-7,11h9s3.419-5.792,6-8c0,0-2.855,5.506-3,8h5s3.672-6.731,6-8c0,0-2.623,7.354-2,9l13,2S180.673,238.876,180,236Z"/>
        <path class="cls-4" d="M172,351h9"/>
        <path class="cls-4" d="M172,339l9-1"/>
        <path class="cls-4" d="M171,325l9,1"/>
        <path class="cls-4" d="M169,312l6-1"/>
        <path class="cls-4" d="M168,301l5-1"/>
        <path class="cls-4" d="M167,291l4-1"/>
      </g>
    </g>
    <g id="tree3">
      <path class="cls-4" d="M188,363s7.246-51.577,18-70c0,0-12.855,61.434-9,70h-9Z"/>
      <g id="leaves-2" data-name="leaves">
        <path class="cls-6" d="M205,297s15.949-33.4,43-6c0,0-17.362-9.672-25-5,0,0-7.188.023-19,17Z"/>
        <path class="cls-4" d="M203,300s-8.943-27.6-28-16c0,0,10.342-1.44,15,3a44.078,44.078,0,0,1,11,19Z"/>
        <path class="cls-4" d="M205,297s1.572-29.4-25-25c0,0,20.09-2.384,22,27Z"/>
        <path class="cls-4" d="M202,300s-4.345-19.9,9-29c0,0-7.65,14.137-6,28Z"/>
        <path class="cls-4" d="M202,304s7.146-37.569,20-40c0,0-12.247,16.693-16,35Z"/>
        <path class="cls-6" d="M202,301s33.185-23.263,29,12c0,0-4.182-14.342-10-13,0,0-11.074-1.408-19,5v-4Z"/>
        <path class="cls-4" d="M172,303s17.221-19.116,30-3v4s-8.737-9.919-17-6C185,298,174.29,301.292,172,303Z"/>
      </g>
    </g>
    <g id="tree3_copy" data-name="tree3 copy">
      <path class="cls-4" d="M168.615,363.01s-20.752-62.946-38.313-83.584c0,0,29.968,74.02,27.128,85.618Z"/>
      <g id="leaves-3" data-name="leaves">
        <path class="cls-4" d="M132.456,284.209s-27.429-38.219-54.806,2.207c0,0,19.374-16.036,29.931-11.912,0,0,8.937-1.6,27.484,16.992Z"/>
        <path class="cls-4" d="M135.625,287.513s4.826-36.585,31.153-26.364c0,0-13.181.535-17.958,7.147a56.166,56.166,0,0,0-9.343,26.278Z"/>
        <path class="cls-4" d="M132.456,284.209s-8.65-36.464,25.375-36.956c0,0-25.51,1.556-21.191,38.782Z"/>
        <path class="cls-4" d="M136.867,287.287s0.869-25.895-17.79-34.279c0,0,12.727,15.973,13.834,33.705Z"/>
        <path class="cls-4" d="M137.778,292.3s-17.437-45.428-33.965-45.566c0,0,19.022,18.133,27.856,40.209Z"/>
        <path class="cls-4" d="M137.1,288.539s-46.539-21.628-33.307,21.582c0,0,1.931-18.9,9.467-18.539,0,0,13.442-4.266,24.751,1.966Z"/>
        <path class="cls-4" d="M174.834,284.262s-25.756-20.043-37.967,3.025l0.911,5.009s8.6-14.4,19.761-11.356C157.539,280.94,171.6,282.641,174.834,284.262Z"/>
      </g>
    </g>
    <g id="bush3">
      <path class="cls-1" d="M164,367s-6.043-30.8-32-41c0,0,4.547,31.867,25,43Z"/>
      <path class="cls-1" d="M153,367s-15.68-17.2-36-14c0,0,11.916,18.8,28,18C145,371,151.652,370.686,153,367Z"/>
      <path class="cls-1" d="M159,367s-7.873-26.891-45-44c0,0,15.645,39.594,38,47Z"/>
      <path id="Shape_177_copy" data-name="Shape 177 copy" class="cls-4" d="M156,364s-6.043-30.8-32-41c0,0,4.547,31.867,25,43Z"/>
      <path id="Shape_179_copy" data-name="Shape 179 copy" class="cls-4" d="M145,364s-15.68-17.2-36-14c0,0,11.916,18.8,28,18C137,368,143.652,367.686,145,364Z"/>
      <path id="Shape_178_copy" data-name="Shape 178 copy" class="cls-4" d="M151,364s-7.873-26.891-45-44c0,0,15.645,39.594,38,47Z"/>
    </g>
    <g id="rock">
      <path class="cls-6" d="M184,362s8.658-20.619,22-5a17.509,17.509,0,0,1,18,6S187.639,363.779,184,362Z"/>
      <path class="cls-6" d="M99,373s15.471-7.773,38-7c0,0,16.473-10.244,29-3,0,0,14.314,5.787,21,5"/>
      <path class="cls-6" d="M210,365s19.51-11.609,37-1c0,0,9.816,5.031,15,3"/>
    </g>
    <g id="bush2">
      <path class="cls-1" d="M229,363s4.217-61.85,36-47c0,0-19.881-3.473-31,46Z"/>
      <path id="Shape_172_copy" data-name="Shape 172 copy" class="cls-4" d="M226,362s4.217-61.85,36-47c0,0-19.881-3.473-31,46Z"/>
      <path class="cls-6" d="M228,362s4.461-26.166-15-29c0,0,11.887,12.207,11,29h4Z"/>
      <path class="cls-6" d="M227,361s25.607-36,53-13c0,0-26.246-10.34-48,14Z"/>
      <path class="cls-6" d="M228,362s16.658-40.547,36-38c0,0-18.533,11.992-32,37Z"/>
      <path class="cls-6" d="M230,359s4.563-38.668-24-34c0,0,20.777,3.51,21,36Z"/>
    </g>
  </g>
  <g id="space_needle" data-name="space needle">
    <path class="cls-8" d="M604,125v-8"/>
    <path id="Shape_115_copy" data-name="Shape 115 copy" class="cls-8" d="M609,125v-8"/>
    <path id="Shape_115_copy_2" data-name="Shape 115 copy 2" class="cls-8" d="M599,125v-8"/>
    <path id="Shape_115_copy_3" data-name="Shape 115 copy 3" class="cls-8" d="M594,125v-8"/>
    <path id="Shape_115_copy_4" data-name="Shape 115 copy 4" class="cls-8" d="M614,125v-8"/>
    <path id="Shape_115_copy_5" data-name="Shape 115 copy 5" class="cls-8" d="M619,125v-8"/>
    <path id="Shape_115_copy_6" data-name="Shape 115 copy 6" class="cls-8" d="M589,125v-8"/>
    <path id="Shape_115_copy_7" data-name="Shape 115 copy 7" class="cls-8" d="M624,125l1-8"/>
    <path id="Shape_115_copy_8" data-name="Shape 115 copy 8" class="cls-8" d="M629,125l3-8"/>
    <path id="Shape_115_copy_9" data-name="Shape 115 copy 9" class="cls-8" d="M584,125l-1-8"/>
    <path id="Shape_115_copy_10" data-name="Shape 115 copy 10" class="cls-8" d="M579,125l-3-8"/>
    <path class="cls-4" d="M619,130a100.841,100.841,0,0,0-5,28s0.1,68.618,1,77c0,0,4.324,51.173,6,55"/>
    <path class="cls-4" d="M630,293s-9.167-4.407-19-3H598s-11.142-.226-18,5v7s5.738,6.226,18,6h14s14.867-3.043,18-6v-9Z"/>
    <path class="cls-4" d="M609,219s4.941,108.944,5,113"/>
    <path id="Shape_109_copy" data-name="Shape 109 copy" class="cls-4" d="M602.091,219S597.06,327.914,597,331.969"/>
    <path class="cls-4" d="M608,219h-7v-3h7v3Z"/>
    <path class="cls-4" d="M609,232h-8v-3h8v3Z"/>
    <path class="cls-4" d="M610,246v-3h-9v3h9Z"/>
    <path id="Shape_112_copy" data-name="Shape 112 copy" class="cls-4" d="M610,260v-3H600v3h10Z"/>
    <path id="Shape_112_copy_2" data-name="Shape 112 copy 2" class="cls-4" d="M610,273v-3H599v3h11Z"/>
    <path class="cls-4" d="M628,297H582v3h46v-3Z"/>
    <path class="cls-4" d="M624,305l3,27"/>
    <path id="Shape_114_copy" data-name="Shape 114 copy" class="cls-4" d="M587.1,305L584,331.783"/>
    <path id="Shape_107_copy_3" data-name="Shape 107 copy 3" class="cls-4" d="M611,130s-1.706,13.3-2,28c0,0,.1,68.618,1,77,0,0,4.324,51.173,6,55"/>
    <path id="Shape_107_copy" data-name="Shape 107 copy" class="cls-4" d="M592,130a100.841,100.841,0,0,1,5,28s-0.1,68.618-1,77c0,0-5.425,53.324-7,57"/>
    <path id="Shape_107_copy_2" data-name="Shape 107 copy 2" class="cls-4" d="M600,130s1.706,13.3,2,28c0,0-.1,68.618-1,77,0,0-3.959,51.3-7,57"/>
    <rect id="Rounded_Rectangle_5" data-name="Rounded Rectangle 5" class="cls-9" x="597" y="87" width="14" height="6" rx="3" ry="3"/>
    <path class="cls-6" d="M604,72"/>
    <path class="cls-6" d="M602,87V71h4V87h-4Z"/>
    <path class="cls-5" d="M581,104h46.7L624,114H584.7Z"/>
    <path id="Rectangle_4_copy_2" data-name="Rectangle 4 copy 2" class="cls-1" d="M586,104h44l-4,10H589.7Z"/>
    <path id="Rectangle_4_copy" data-name="Rectangle 4 copy" class="cls-4" d="M581,104h46.7L624,114H584.7Z"/>
    <path class="cls-6" d="M597,91h14"/>
    <path class="cls-1" d="M588,105s16.808-3.966,15-13h10s-0.917,9.661,16,13H588Z"/>
    <path id="Shape_104_copy" data-name="Shape 104 copy" class="cls-4" d="M582,105s16.808-3.966,15-13h14s-1.917,9.661,15,13H582Z"/>
    <path class="cls-5" d="M576,124h57.386L629,131H580.386Z"/>
    <path id="Rectangle_3_copy_5" data-name="Rectangle 3 copy 5" class="cls-1" d="M582,124h55l-4,7H586.386Z"/>
    <path id="Rectangle_3_copy_4" data-name="Rectangle 3 copy 4" class="cls-4" d="M576,124h57.386L629,131H580.386Z"/>
    <path id="Rectangle_3_copy" data-name="Rectangle 3 copy" class="cls-5" d="M567,118h76.015l-5.81-7h-64.4Z"/>
    <path id="Rectangle_3_copy_3" data-name="Rectangle 3 copy 3" class="cls-1" d="M573,118h73l-5-7H578.81Z"/>
    <path id="Rectangle_3_copy_2" data-name="Rectangle 3 copy 2" class="cls-4" d="M567,118h76.015l-5.81-7h-64.4Z"/>
  </g>
  <g id="ferries">
    <path class="cls-5" d="M916.432,327l3.561-150.583,8.014,0.891V327H916.432Z"/>
    <path id="Shape_100_copy_2" data-name="Shape 100 copy 2" class="cls-1" d="M920.884,327l3.561-150.583,8.013,0.891V327H920.884Z"/>
    <path id="Shape_100_copy" data-name="Shape 100 copy" class="cls-4" d="M916.432,327l3.561-150.583,8.014,0.891V327H916.432Z"/>
    <path class="cls-6" d="M814.04,327.218h215.47"/>
    <g id="cart">
      <g>
        <path class="cls-1" d="M1001.46,75.731a6.255,6.255,0,1,1-5.786,6.237A6.025,6.025,0,0,1,1001.46,75.731Z"/>
        <path id="Ellipse_2_copy" data-name="Ellipse 2 copy" class="cls-1" d="M1022.83,95.333a6.255,6.255,0,1,1-5.79,6.238A6.025,6.025,0,0,1,1022.83,95.333Z"/>
        <path id="Ellipse_2_copy_2" data-name="Ellipse 2 copy 2" class="cls-1" d="M1037.97,119.391a6.254,6.254,0,1,1-5.79,6.237A6.023,6.023,0,0,1,1037.97,119.391Z"/>
        <circle id="Ellipse_2_copy_3" data-name="Ellipse 2 copy 3" class="cls-10" cx="1048.66" cy="152.359" r="5.78"/>
        <path id="Ellipse_2_copy_4" data-name="Ellipse 2 copy 4" class="cls-1" d="M1052.21,174.635a6.255,6.255,0,1,1-5.78,6.237A6.024,6.024,0,0,1,1052.21,174.635Z"/>
        <circle id="Ellipse_2_copy_5" data-name="Ellipse 2 copy 5" class="cls-10" cx="1049.545" cy="209.391" r="5.795"/>
        <path id="Ellipse_2_copy_6" data-name="Ellipse 2 copy 6" class="cls-1" d="M1040.64,230.769a6.255,6.255,0,1,1-5.79,6.237A6.031,6.031,0,0,1,1040.64,230.769Z"/>
        <path id="Ellipse_2_copy_7" data-name="Ellipse 2 copy 7" class="cls-1" d="M1025.5,254.827a6.254,6.254,0,1,1-5.79,6.237A6.024,6.024,0,0,1,1025.5,254.827Z"/>
        <path id="Ellipse_2_copy_8" data-name="Ellipse 2 copy 8" class="cls-1" d="M1005.02,275.321a6.255,6.255,0,1,1-5.784,6.237A6.024,6.024,0,0,1,1005.02,275.321Z"/>
        <path id="Ellipse_2_copy_9" data-name="Ellipse 2 copy 9" class="cls-1" d="M981.874,289.577a6.254,6.254,0,1,1-5.788,6.237A6.024,6.024,0,0,1,981.874,289.577Z"/>
        <circle id="Ellipse_2_copy_10" data-name="Ellipse 2 copy 10" class="cls-10" cx="954.281" cy="306.515" r="5.781"/>
        <path id="Ellipse_2_copy_11" data-name="Ellipse 2 copy 11" class="cls-1" d="M925.781,302.942a6.255,6.255,0,1,1-5.788,6.237A6.025,6.025,0,0,1,925.781,302.942Z"/>
        <circle id="Ellipse_2_copy_13" data-name="Ellipse 2 copy 13" class="cls-10" cx="977.422" cy="67.703" r="5.797"/>
        <circle id="Ellipse_2_copy_14" data-name="Ellipse 2 copy 14" class="cls-10" cx="952.5" cy="59.703" r="5.781"/>
        <path id="Ellipse_2_copy_15" data-name="Ellipse 2 copy 15" class="cls-1" d="M850.1,75.731a6.255,6.255,0,1,1-5.788,6.237A6.025,6.025,0,0,1,850.1,75.731Z"/>
        <circle id="Ellipse_2_copy_15-2" data-name="Ellipse 2 copy 15" class="cls-10" cx="828.735" cy="101.578" r="5.796"/>
        <circle id="Ellipse_2_copy_15-3" data-name="Ellipse 2 copy 15" class="cls-10" cx="813.593" cy="125.641" r="5.781"/>
        <path id="Ellipse_2_copy_15-4" data-name="Ellipse 2 copy 15" class="cls-1" d="M802.91,146.122a6.254,6.254,0,1,1-5.787,6.237A6.025,6.025,0,0,1,802.91,146.122Z"/>
        <path id="Ellipse_2_copy_15-5" data-name="Ellipse 2 copy 15" class="cls-1" d="M799.349,174.635a6.254,6.254,0,1,1-5.788,6.237A6.024,6.024,0,0,1,799.349,174.635Z"/>
        <path id="Ellipse_2_copy_15-6" data-name="Ellipse 2 copy 15" class="cls-1" d="M802.02,203.147a6.255,6.255,0,1,1-5.787,6.238A6.025,6.025,0,0,1,802.02,203.147Z"/>
        <path id="Ellipse_2_copy_15-7" data-name="Ellipse 2 copy 15" class="cls-1" d="M810.924,230.769a6.255,6.255,0,1,1-5.788,6.237A6.025,6.025,0,0,1,810.924,230.769Z"/>
        <path id="Ellipse_2_copy_15-8" data-name="Ellipse 2 copy 15" class="cls-1" d="M826.06,254.827a6.254,6.254,0,1,1-5.788,6.237A6.024,6.024,0,0,1,826.06,254.827Z"/>
        <circle id="Ellipse_2_copy_15-9" data-name="Ellipse 2 copy 15" class="cls-10" cx="846.531" cy="281.547" r="5.781"/>
        <path id="Ellipse_2_copy_15-10" data-name="Ellipse 2 copy 15" class="cls-1" d="M869.688,289.577a6.254,6.254,0,1,1-5.788,6.237A6.024,6.024,0,0,1,869.688,289.577Z"/>
        <circle id="Ellipse_2_copy_15-11" data-name="Ellipse 2 copy 15" class="cls-10" cx="897.281" cy="306.515" r="5.781"/>
        <path id="Ellipse_2_copy_15-12" data-name="Ellipse 2 copy 15" class="cls-1" d="M925.781,302.942a6.255,6.255,0,1,1-5.788,6.237A6.025,6.025,0,0,1,925.781,302.942Z"/>
        <path id="Ellipse_2_copy_15-13" data-name="Ellipse 2 copy 15" class="cls-1" d="M874.14,61.474a6.255,6.255,0,1,1-5.788,6.237A6.025,6.025,0,0,1,874.14,61.474Z"/>
        <path id="Ellipse_2_copy_15-14" data-name="Ellipse 2 copy 15" class="cls-1" d="M901.741,52.564a6.255,6.255,0,1,1-5.787,6.237A6.025,6.025,0,0,1,901.741,52.564Z"/>
        <path id="Ellipse_2_copy_16" data-name="Ellipse 2 copy 16" class="cls-1" d="M925.781,50.782a6.255,6.255,0,1,1-5.788,6.237A6.025,6.025,0,0,1,925.781,50.782Z"/>
      </g>
      <g>
        <path id="Ellipse_2_copy_12" data-name="Ellipse 2 copy 12" class="cls-4" d="M997.9,73.949a6.255,6.255,0,1,1-5.787,6.237A6.025,6.025,0,0,1,997.9,73.949Z"/>
        <path id="Ellipse_2_copy_12-2" data-name="Ellipse 2 copy 12" class="cls-4" d="M1019.27,93.551a6.255,6.255,0,1,1-5.79,6.237A6.025,6.025,0,0,1,1019.27,93.551Z"/>
        <path id="Ellipse_2_copy_12-3" data-name="Ellipse 2 copy 12" class="cls-4" d="M1034.41,117.609a6.254,6.254,0,1,1-5.79,6.237A6.023,6.023,0,0,1,1034.41,117.609Z"/>
        <path id="Ellipse_2_copy_12-4" data-name="Ellipse 2 copy 12" class="cls-4" d="M1045.09,144.34a6.254,6.254,0,1,1-5.79,6.237A6.024,6.024,0,0,1,1045.09,144.34Z"/>
        <path id="Ellipse_2_copy_12-5" data-name="Ellipse 2 copy 12" class="cls-4" d="M1048.65,172.853a6.254,6.254,0,1,1-5.79,6.237A6.024,6.024,0,0,1,1048.65,172.853Z"/>
        <path id="Ellipse_2_copy_12-6" data-name="Ellipse 2 copy 12" class="cls-4" d="M1045.98,201.365a6.255,6.255,0,1,1-5.79,6.238A6.025,6.025,0,0,1,1045.98,201.365Z"/>
        <path id="Ellipse_2_copy_12-7" data-name="Ellipse 2 copy 12" class="cls-4" d="M1037.08,228.987a6.255,6.255,0,1,1-5.79,6.237A6.023,6.023,0,0,1,1037.08,228.987Z"/>
        <path id="Ellipse_2_copy_12-8" data-name="Ellipse 2 copy 12" class="cls-4" d="M1021.94,253.045a6.254,6.254,0,1,1-5.79,6.237A6.024,6.024,0,0,1,1021.94,253.045Z"/>
        <path id="Ellipse_2_copy_12-9" data-name="Ellipse 2 copy 12" class="cls-4" d="M1001.46,273.538a6.255,6.255,0,1,1-5.786,6.238A6.025,6.025,0,0,1,1001.46,273.538Z"/>
        <path id="Ellipse_2_copy_12-10" data-name="Ellipse 2 copy 12" class="cls-4" d="M978.312,287.8a6.254,6.254,0,1,1-5.787,6.237A6.025,6.025,0,0,1,978.312,287.8Z"/>
        <circle id="Ellipse_2_copy_12-11" data-name="Ellipse 2 copy 12" class="cls-11" cx="950.719" cy="304.735" r="5.781"/>
        <circle id="Ellipse_2_copy_12-12" data-name="Ellipse 2 copy 12" class="cls-11" cx="922.219" cy="307.39" r="5.781"/>
        <path id="Ellipse_2_copy_17" data-name="Ellipse 2 copy 17" class="cls-4" d="M973.86,59.692a6.255,6.255,0,1,1-5.787,6.237A6.025,6.025,0,0,1,973.86,59.692Z"/>
        <path id="Ellipse_2_copy_17-2" data-name="Ellipse 2 copy 17" class="cls-4" d="M948.93,51.673a6.255,6.255,0,1,1-5.787,6.237A6.026,6.026,0,0,1,948.93,51.673Z"/>
        <path id="Ellipse_2_copy_17-3" data-name="Ellipse 2 copy 17" class="cls-4" d="M846.538,73.949a6.255,6.255,0,1,1-5.787,6.237A6.025,6.025,0,0,1,846.538,73.949Z"/>
        <path id="Ellipse_2_copy_17-4" data-name="Ellipse 2 copy 17" class="cls-4" d="M825.169,93.551a6.255,6.255,0,1,1-5.787,6.237A6.025,6.025,0,0,1,825.169,93.551Z"/>
        <path id="Ellipse_2_copy_17-5" data-name="Ellipse 2 copy 17" class="cls-4" d="M810.033,117.609a6.254,6.254,0,1,1-5.787,6.237A6.025,6.025,0,0,1,810.033,117.609Z"/>
        <circle id="Ellipse_2_copy_17-6" data-name="Ellipse 2 copy 17" class="cls-11" cx="799.343" cy="150.578" r="5.781"/>
        <path id="Ellipse_2_copy_17-7" data-name="Ellipse 2 copy 17" class="cls-4" d="M795.787,172.853A6.254,6.254,0,1,1,790,179.09,6.025,6.025,0,0,1,795.787,172.853Z"/>
        <circle id="Ellipse_2_copy_17-8" data-name="Ellipse 2 copy 17" class="cls-11" cx="798.453" cy="207.609" r="5.797"/>
        <circle id="Ellipse_2_copy_17-9" data-name="Ellipse 2 copy 17" class="cls-11" cx="807.359" cy="235.234" r="5.797"/>
        <circle id="Ellipse_2_copy_17-10" data-name="Ellipse 2 copy 17" class="cls-11" cx="822.5" cy="259.281" r="5.781"/>
        <path id="Ellipse_2_copy_17-11" data-name="Ellipse 2 copy 17" class="cls-4" d="M842.977,273.538a6.255,6.255,0,1,1-5.788,6.238A6.025,6.025,0,0,1,842.977,273.538Z"/>
        <path id="Ellipse_2_copy_17-12" data-name="Ellipse 2 copy 17" class="cls-4" d="M866.126,287.8a6.254,6.254,0,1,1-5.787,6.237A6.025,6.025,0,0,1,866.126,287.8Z"/>
        <circle id="Ellipse_2_copy_17-13" data-name="Ellipse 2 copy 17" class="cls-11" cx="893.719" cy="304.735" r="5.781"/>
        <circle id="Ellipse_2_copy_17-14" data-name="Ellipse 2 copy 17" class="cls-11" cx="922.219" cy="307.39" r="5.781"/>
        <path id="Ellipse_2_copy_17-15" data-name="Ellipse 2 copy 17" class="cls-4" d="M870.578,59.692a6.255,6.255,0,1,1-5.787,6.237A6.025,6.025,0,0,1,870.578,59.692Z"/>
        <path id="Ellipse_2_copy_17-16" data-name="Ellipse 2 copy 17" class="cls-4" d="M898.179,50.782a6.255,6.255,0,1,1-5.787,6.237A6.025,6.025,0,0,1,898.179,50.782Z"/>
        <circle id="Ellipse_2_copy_17-17" data-name="Ellipse 2 copy 17" class="cls-11" cx="922.219" cy="55.234" r="5.781"/>
      </g>
    </g>
    <circle class="cls-11" cx="923.111" cy="181.328" r="117.08"/>
    <circle id="Ellipse_1_copy" data-name="Ellipse 1 copy" class="cls-11" cx="923.109" cy="181.312" r="114.421"/>
    <g id="string">
      <path class="cls-6" d="M1031.29,147.9L928.007,180.872"/>
      <path class="cls-6" d="M1034.85,160.378L928.007,180.872"/>
      <path class="cls-6" d="M1035.74,172.853L928.9,180.872"/>
      <path class="cls-6" d="M1036.63,185.327L928.9,181.763"/>
      <path class="cls-6" d="M1034.85,198.692l-107.734-17.82"/>
      <path class="cls-6" d="M1032.18,211.167l-108.625-29.4"/>
      <path class="cls-6" d="M1028.62,223.641L921.774,180.872"/>
      <path class="cls-6" d="M1023.28,236.115L922.664,179.981"/>
      <path class="cls-6" d="M1016.15,246.808l-92.6-65.936"/>
      <path class="cls-6" d="M1009.03,256.609L923.555,179.09"/>
      <path class="cls-6" d="M999.236,265.519l-76.572-84.647"/>
      <path class="cls-6" d="M990.332,273.538l-67.668-93.557"/>
      <path class="cls-6" d="M977.867,281.558L923.555,179.981"/>
      <path class="cls-6" d="M965.4,286.9L923.555,179.981"/>
      <path class="cls-6" d="M953.827,290.468L923.555,179.981"/>
      <path class="cls-6" d="M941.362,293.141L923.555,179.09"/>
      <path class="cls-6" d="M929.787,294.923l-6.232-114.942"/>
      <path class="cls-6" d="M916.432,294.032l7.123-114.051"/>
      <path class="cls-6" d="M907.528,293.141l16.027-113.16"/>
      <path class="cls-6" d="M895.063,291.359l27.6-110.487"/>
      <path class="cls-6" d="M867.462,279.776l55.2-100.686"/>
      <path class="cls-6" d="M855.887,272.647l67.668-91.775"/>
      <path class="cls-6" d="M846.093,263.737l76.571-83.756"/>
      <path class="cls-6" d="M837.189,253.936l86.366-74.846"/>
      <path class="cls-6" d="M828.286,244.135l94.378-65.045"/>
      <path class="cls-6" d="M822.053,232.551l99.721-52.57"/>
      <path class="cls-6" d="M879.927,286.013l42.737-104.25"/>
      <path class="cls-6" d="M817.6,221.859l104.173-41.878"/>
      <path class="cls-6" d="M813.15,209.385l106.843-29.4"/>
      <path class="cls-6" d="M811.369,199.583L923.555,178.2"/>
      <path class="cls-6" d="M809.588,188l115.748-9.8"/>
      <path class="cls-6" d="M809.588,176.417l114.857,0.891"/>
      <path class="cls-6" d="M810.478,163.051l113.077,13.366"/>
      <path class="cls-6" d="M814.04,149.686l109.515,26.731"/>
      <path class="cls-6" d="M818.492,138.1l104.172,39.2"/>
      <path class="cls-6" d="M824.724,123.846l98.831,52.571"/>
      <path class="cls-6" d="M830.957,114.045l92.6,62.372"/>
      <path class="cls-6" d="M839.86,103.353L925.336,178.2"/>
      <path class="cls-6" d="M847.874,95.333L926.226,178.2"/>
      <path class="cls-6" d="M857.668,87.314L926.226,178.2"/>
      <path class="cls-6" d="M867.462,81.077L924.445,178.2"/>
      <path class="cls-6" d="M879.037,75.731l47.189,101.577"/>
      <path class="cls-6" d="M891.5,72.167l34.724,105.141"/>
      <path class="cls-6" d="M904.857,68.6l21.369,109.6"/>
      <path class="cls-6" d="M917.322,67.712l8.9,111.379"/>
      <path class="cls-6" d="M929.787,68.6L925.336,179.09"/>
      <path class="cls-6" d="M938.691,68.6L924.445,176.417"/>
      <path class="cls-6" d="M951.156,72.167L925.336,178.2"/>
      <path class="cls-6" d="M962.731,74.84L925.336,177.308"/>
      <path class="cls-6" d="M975.2,80.186l-49.86,97.122"/>
      <path class="cls-6" d="M986.771,87.314l-60.545,89.994"/>
      <path class="cls-6" d="M996.565,94.442L926.226,178.2"/>
      <path class="cls-6" d="M1006.36,103.353L925.336,179.09"/>
      <path class="cls-6" d="M1014.37,114.045L925.336,178.2"/>
      <path class="cls-6" d="M1020.6,124.737l-93.484,52.571"/>
      <path class="cls-6" d="M1026.84,136.321L927.116,178.2"/>
    </g>
    <g id="stand">
      <path class="cls-5" d="M924.445,188L965.4,327h13.355l-48.97-144.346Z"/>
      <path id="Shape_101_copy_5" data-name="Shape 101 copy 5" class="cls-1" d="M928.007,188l40.956,139h13.356l-48.97-144.346Z"/>
      <path id="Shape_101_copy_4" data-name="Shape 101 copy 4" class="cls-4" d="M924.445,188L965.4,327h13.355l-48.97-144.346Z"/>
      <path id="Shape_101_copy" data-name="Shape 101 copy" class="cls-5" d="M924.119,187.229L893.282,290.468,884.379,327H870.133l50.4-146.844Z"/>
      <path id="Shape_101_copy_3" data-name="Shape 101 copy 3" class="cls-1" d="M928.571,187.229L897.734,290.468,888.831,327H874.585l50.4-146.844Z"/>
      <path id="Shape_101_copy_2" data-name="Shape 101 copy 2" class="cls-4" d="M924.119,187.229L893.282,290.468,884.379,327H870.133l50.4-146.844Z"/>
    </g>
    <g id="joint">
      <path class="cls-5" d="M924.445,161.269a18.712,18.712,0,1,1-18.7,18.712A18.7,18.7,0,0,1,924.445,161.269Z"/>
      <circle id="Ellipse_3_copy_5" data-name="Ellipse 3 copy 5" class="cls-10" cx="928.015" cy="181.766" r="18.704"/>
      <path id="Ellipse_3_copy_4" data-name="Ellipse 3 copy 4" class="cls-4" d="M924.445,161.269a18.712,18.712,0,1,1-18.7,18.712A18.7,18.7,0,0,1,924.445,161.269Z"/>
      <path id="Ellipse_3_copy" data-name="Ellipse 3 copy" class="cls-5" d="M924.445,168.4a11.584,11.584,0,1,1-11.575,11.584A11.579,11.579,0,0,1,924.445,168.4Z"/>
      <circle id="Ellipse_3_copy_3" data-name="Ellipse 3 copy 3" class="cls-10" cx="928.016" cy="182.656" r="11.578"/>
      <path id="Ellipse_3_copy_2" data-name="Ellipse 3 copy 2" class="cls-4" d="M924.445,168.4a11.584,11.584,0,1,1-11.575,11.584A11.579,11.579,0,0,1,924.445,168.4Z"/>
    </g>
    <g id="attach">
      <path class="cls-4" d="M919.1,59.692h6.233V65.93H919.1V59.692Z"/>
      <path id="Rectangle_2_copy" data-name="Rectangle 2 copy" class="cls-4" d="M944.96,60.766l6.014,1.636-1.635,6.019-6.014-1.636Z"/>
      <path id="Rectangle_2_copy_2" data-name="Rectangle 2 copy 2" class="cls-4" d="M969,68.785l6.015,1.636-1.635,6.019L967.365,74.8Z"/>
      <path id="Rectangle_2_copy_3" data-name="Rectangle 2 copy 3" class="cls-4" d="M990.036,86.932l3.349-5.26,5.256,3.351-3.348,5.26Z"/>
      <path id="Rectangle_2_copy_4" data-name="Rectangle 2 copy 4" class="cls-4" d="M1009.52,105.423l4.56-4.25,4.25,4.564-4.56,4.251Z"/>
      <path id="Rectangle_2_copy_5" data-name="Rectangle 2 copy 5" class="cls-4" d="M1023.98,126.489l5.56-2.826,2.82,5.56-5.55,2.826Z"/>
      <path id="Rectangle_2_copy_6" data-name="Rectangle 2 copy 6" class="cls-4" d="M1034.41,149.306l6.16-.95,0.95,6.164-6.16.951Z"/>
      <path id="Rectangle_2_copy_7" data-name="Rectangle 2 copy 7" class="cls-4" d="M1037.97,176.928l6.16-.95,0.95,6.164-6.16.951Z"/>
      <path id="Rectangle_2_copy_8" data-name="Rectangle 2 copy 8" class="cls-4" d="M1037.38,202.546l6.08,1.35-1.34,6.09-6.09-1.35Z"/>
      <path id="Rectangle_2_copy_9" data-name="Rectangle 2 copy 9" class="cls-4" d="M1030.4,227.011l5.53,2.87-2.86,5.537-5.54-2.869Z"/>
      <path id="Rectangle_2_copy_10" data-name="Rectangle 2 copy 10" class="cls-4" d="M1015.26,250.178l5.54,2.869-2.87,5.538-5.53-2.869Z"/>
      <path id="Rectangle_2_copy_11" data-name="Rectangle 2 copy 11" class="cls-4" d="M997.1,269.575l4.322,4.5-4.5,4.32-4.317-4.5Z"/>
      <path id="Rectangle_2_copy_12" data-name="Rectangle 2 copy 12" class="cls-4" d="M976.842,284l3.04,5.445-5.442,3.042-3.039-5.445Z"/>
      <path id="Rectangle_2_copy_15" data-name="Rectangle 2 copy 15" class="cls-4" d="M892.871,293.887l-1.514,5.9,5.9,1.515,1.513-5.9Z"/>
      <path id="Rectangle_2_copy_14" data-name="Rectangle 2 copy 14" class="cls-4" d="M925.352,296.721l-0.033,6.237-6.232-.032,0.032-6.237Z"/>
      <path id="Rectangle_2_copy_16" data-name="Rectangle 2 copy 16" class="cls-4" d="M902.111,60.983l-6.041,1.581,1.583,6.033,6.041-1.581Z"/>
      <path id="Rectangle_2_copy_16-2" data-name="Rectangle 2 copy 16" class="cls-4" d="M874.816,68.545L869,70.828l2.283,5.8,5.813-2.283Z"/>
      <path id="Rectangle_2_copy_16-3" data-name="Rectangle 2 copy 16" class="cls-4" d="M855.916,87l-4.03-4.762-4.771,4.028,4.03,4.762Z"/>
      <path id="Rectangle_2_copy_16-4" data-name="Rectangle 2 copy 16" class="cls-4" d="M835.214,104.718l-4.835-3.946-3.953,4.83,4.835,3.946Z"/>
      <path id="Rectangle_2_copy_16-5" data-name="Rectangle 2 copy 16" class="cls-4" d="M820.3,125.334l-5.92-1.98-1.986,5.914,5.921,1.98Z"/>
      <path id="Rectangle_2_copy_16-6" data-name="Rectangle 2 copy 16" class="cls-4" d="M810.787,149.584l-6.163-1.007-1.007,6.155,6.163,1.006Z"/>
      <path id="Rectangle_2_copy_16-7" data-name="Rectangle 2 copy 16" class="cls-4" d="M806.541,175.769L800.3,175.7l-0.075,6.236,6.245,0.071Z"/>
      <path id="Rectangle_2_copy_16-8" data-name="Rectangle 2 copy 16" class="cls-4" d="M808.219,201.9l-6.108,1.294,1.3,6.1L809.516,208Z"/>
      <path id="Rectangle_2_copy_16-9" data-name="Rectangle 2 copy 16" class="cls-4" d="M816.3,227.476l-5.831,2.23,2.236,5.824,5.831-2.23Z"/>
      <path id="Rectangle_2_copy_16-10" data-name="Rectangle 2 copy 16" class="cls-4" d="M829.286,249.561l-5.075,3.638,3.64,5.066,5.074-3.638Z"/>
      <path id="Rectangle_2_copy_16-11" data-name="Rectangle 2 copy 16" class="cls-4" d="M847.969,269.283l-4.367,4.458,4.464,4.361,4.367-4.458Z"/>
      <path id="Rectangle_2_copy_16-12" data-name="Rectangle 2 copy 16" class="cls-4" d="M868.133,283.888l-3.1,5.417,5.424,3.091,3.1-5.417Z"/>
      <path id="Rectangle_2_copy_16-13" data-name="Rectangle 2 copy 16" class="cls-4" d="M952.178,294.545l1.463,5.916-5.924,1.46-1.463-5.916Z"/>
    </g>
  </g>
  <g id="machu_picchu" data-name="machu picchu">
    <path id="base_copy" data-name="base copy" class="cls-5" d="M528,234H466l-7,9h-5l-9,13h-5l-10,15h-5l-11,16h-5l-9,15h-4l-12,16h-5l-11,16h-5l-14,20H646l-13-20h-5l-11-16h-5l-11-16h-5l-11-15h-5l-12-16h-4l-10-15h-4l-9-13h-5Z"/>
    <path id="base_copy_2" data-name="base copy 2" class="cls-1" d="M533,234H471l-7,9h-5l-9,13h-5l-10,15h-5l-11,16h-5l-9,15h-4l-12,16h-5l-11,16h-5l-14,20H651l-13-20h-5l-11-16h-5l-11-16h-5l-11-15h-5l-12-16h-4l-10-15h-4l-9-13h-5Z"/>
    <path id="base" class="cls-4" d="M527,232H465l-7,9h-5l-9,13h-5l-10,15h-5l-11,16h-5l-9,15h-4l-12,16h-5l-11,16h-5l-14,20H645l-13-20h-5l-11-16h-5l-11-16h-5l-11-15h-5l-12-16h-4l-10-15h-4l-9-13h-5Z"/>
    <path class="cls-5" d="M472,210v24h47V210H472Z"/>
    <path id="Shape_4_copy_2" data-name="Shape 4 copy 2" class="cls-1" d="M477,210v24h45V210H477Z"/>
    <path id="Shape_4_copy" data-name="Shape 4 copy" class="cls-4" d="M472,210v24h47V210H472Z"/>
    <g id="lines">
      <path class="cls-4" d="M453,241h87"/>
      <path id="Shape_3_copy" data-name="Shape 3 copy" class="cls-4" d="M445,254H548"/>
      <path id="Shape_3_copy_2" data-name="Shape 3 copy 2" class="cls-4" d="M430,269H564"/>
      <path id="Shape_3_copy_3" data-name="Shape 3 copy 3" class="cls-4" d="M414,285H580"/>
      <path id="Shape_3_copy_4" data-name="Shape 3 copy 4" class="cls-4" d="M399,300H594"/>
      <path id="Shape_3_copy_5" data-name="Shape 3 copy 5" class="cls-4" d="M381,316H610"/>
      <path id="Shape_3_copy_6" data-name="Shape 3 copy 6" class="cls-4" d="M366,332H628"/>
    </g>
    <g id="windows">
      <rect id="Rounded_Rectangle_2" data-name="Rounded Rectangle 2" class="cls-9" x="480" y="222" width="8" height="12" rx="3" ry="3"/>
      <rect id="Rounded_Rectangle_2_copy" data-name="Rounded Rectangle 2 copy" class="cls-9" x="491" y="222" width="8" height="12" rx="3" ry="3"/>
      <rect id="Rounded_Rectangle_2_copy_2" data-name="Rounded Rectangle 2 copy 2" class="cls-9" x="502" y="222" width="8" height="12" rx="3" ry="3"/>
    </g>
    <path id="background_fill" data-name="background fill" class="cls-5" d="M476,233L466,351h62L515,233H476Z"/>
    <g id="pillar_hori" data-name="pillar hori">
      <path class="cls-4" d="M480,236h32"/>
      <path id="Shape_6_copy" data-name="Shape 6 copy" class="cls-4" d="M480,241h32"/>
      <path id="Shape_6_copy_2" data-name="Shape 6 copy 2" class="cls-4" d="M479,247h34"/>
      <path id="Shape_6_copy_3" data-name="Shape 6 copy 3" class="cls-4" d="M479,254h35"/>
      <path id="Shape_6_copy_4" data-name="Shape 6 copy 4" class="cls-4" d="M478,262h36"/>
      <path id="Shape_6_copy_5" data-name="Shape 6 copy 5" class="cls-4" d="M478,270h37"/>
      <path id="Shape_6_copy_6" data-name="Shape 6 copy 6" class="cls-4" d="M477,278h38"/>
      <path id="Shape_6_copy_7" data-name="Shape 6 copy 7" class="cls-4" d="M476,286h40"/>
      <path id="Shape_6_copy_8" data-name="Shape 6 copy 8" class="cls-4" d="M476,294h41"/>
      <path id="Shape_6_copy_9" data-name="Shape 6 copy 9" class="cls-4" d="M475,302h43"/>
      <path id="Shape_6_copy_10" data-name="Shape 6 copy 10" class="cls-4" d="M474,310h45"/>
      <path id="Shape_6_copy_11" data-name="Shape 6 copy 11" class="cls-4" d="M473,318h47"/>
      <path id="Shape_6_copy_12" data-name="Shape 6 copy 12" class="cls-4" d="M473,326h48"/>
      <path id="Shape_6_copy_13" data-name="Shape 6 copy 13" class="cls-4" d="M473,334h48"/>
      <path id="Shape_6_copy_14" data-name="Shape 6 copy 14" class="cls-4" d="M472,342h50"/>
      <path id="Shape_6_copy_15" data-name="Shape 6 copy 15" class="cls-4" d="M472,350h50"/>
    </g>
    <rect id="Rounded_Rectangle_1" data-name="Rounded Rectangle 1" class="cls-12" x="471" y="202" width="49" height="10" rx="5" ry="5"/>
    <rect id="Rounded_Rectangle_1_copy_2" data-name="Rounded Rectangle 1 copy 2" class="cls-10" x="476" y="202" width="49" height="10" rx="5" ry="5"/>
    <rect id="Rounded_Rectangle_1_copy" data-name="Rounded Rectangle 1 copy" class="cls-11" x="471" y="202" width="49" height="10" rx="5" ry="5"/>
    <path class="cls-6" d="M470,216h51"/>
    <g id="pillar">
      <path class="cls-5" d="M472,232L459,352h13l9-120h-9Z"/>
      <path id="Shape_5_copy_3" data-name="Shape 5 copy 3" class="cls-1" d="M477,232L464,352l11,1,9-121h-7Z"/>
      <path id="Shape_5_copy_2" data-name="Shape 5 copy 2" class="cls-4" d="M472,232L459,352h13l9-120h-9Z"/>
      <path id="Shape_5_copy" data-name="Shape 5 copy" class="cls-5" d="M519,232l16,120H521L511,232h8Z"/>
      <path id="Shape_5_copy_5" data-name="Shape 5 copy 5" class="cls-1" d="M522,232l17,120H526L516,232h6Z"/>
      <path id="Shape_5_copy_4" data-name="Shape 5 copy 4" class="cls-4" d="M519,232l16,120H521L511,232h8Z"/>
    </g>
  </g>
  <g id="chinese_dojo" data-name="chinese dojo">
    <g id="pillars">
      <rect id="Rounded_Rectangle_4" data-name="Rounded Rectangle 4" class="cls-11" x="676" y="281" width="11" height="48" rx="5.5" ry="5.5"/>
      <rect id="Rounded_Rectangle_4_copy_5" data-name="Rounded Rectangle 4 copy 5" class="cls-13" x="853" y="281" width="11" height="48" rx="5.5" ry="5.5"/>
      <rect id="Rounded_Rectangle_4_copy" data-name="Rounded Rectangle 4 copy" class="cls-11" x="710" y="235" width="11" height="94" rx="5.5" ry="5.5"/>
      <rect id="Rounded_Rectangle_4_copy_2" data-name="Rounded Rectangle 4 copy 2" class="cls-11" x="741" y="235" width="11" height="94" rx="5.5" ry="5.5"/>
      <rect id="Rounded_Rectangle_4_copy_3" data-name="Rounded Rectangle 4 copy 3" class="cls-11" x="787" y="235" width="11" height="94" rx="5.5" ry="5.5"/>
      <rect id="Rounded_Rectangle_4_copy_4" data-name="Rounded Rectangle 4 copy 4" class="cls-13" x="820" y="235" width="11" height="94" rx="5.5" ry="5.5"/>
    </g>
    <g>
      <rect id="Rounded_Rectangle_5_copy" data-name="Rounded Rectangle 5 copy" class="cls-12" x="719" y="295" width="24" height="28"/>
      <rect id="Rounded_Rectangle_5_copy_18" data-name="Rounded Rectangle 5 copy 18" class="cls-10" x="724" y="295" width="23" height="28"/>
      <rect id="Rounded_Rectangle_5_copy_17" data-name="Rounded Rectangle 5 copy 17" class="cls-11" x="719" y="295" width="24" height="28"/>
      <rect id="Rounded_Rectangle_5_copy_2" data-name="Rounded Rectangle 5 copy 2" class="cls-12" x="685" y="295" width="27" height="28" rx="1" ry="1"/>
      <rect id="Rounded_Rectangle_5_copy_14" data-name="Rounded Rectangle 5 copy 14" class="cls-10" x="690" y="295" width="26" height="28" rx="1" ry="1"/>
      <rect id="Rounded_Rectangle_5_copy_13" data-name="Rounded Rectangle 5 copy 13" class="cls-11" x="685" y="295" width="27" height="28" rx="1" ry="1"/>
      <rect id="Rounded_Rectangle_5_copy_4" data-name="Rounded Rectangle 5 copy 4" class="cls-12" x="796" y="296" width="26" height="28"/>
      <rect id="Rounded_Rectangle_5_copy_26" data-name="Rounded Rectangle 5 copy 26" class="cls-10" x="801" y="296" width="25" height="28"/>
      <rect id="Rounded_Rectangle_5_copy_25" data-name="Rounded Rectangle 5 copy 25" class="cls-11" x="796" y="296" width="26" height="28"/>
      <rect id="Rounded_Rectangle_5_copy_5" data-name="Rounded Rectangle 5 copy 5" class="cls-12" x="829" y="296" width="26" height="28"/>
      <rect id="Rounded_Rectangle_5_copy_30" data-name="Rounded Rectangle 5 copy 30" class="cls-10" x="834" y="296" width="25" height="28"/>
      <rect id="Rounded_Rectangle_5_copy_29" data-name="Rounded Rectangle 5 copy 29" class="cls-11" x="829" y="296" width="26" height="28"/>
      <rect id="Rounded_Rectangle_5_copy_3" data-name="Rounded Rectangle 5 copy 3" class="cls-12" x="750" y="295" width="39" height="28"/>
      <rect id="Rounded_Rectangle_5_copy_22" data-name="Rounded Rectangle 5 copy 22" class="cls-10" x="756" y="295" width="37" height="28"/>
      <rect id="Rounded_Rectangle_5_copy_21" data-name="Rounded Rectangle 5 copy 21" class="cls-11" x="750" y="295" width="39" height="28"/>
    </g>
    <rect id="Rounded_Rectangle_3" data-name="Rounded Rectangle 3" class="cls-12" x="693" y="208" width="8" height="22" rx="4" ry="4"/>
    <rect id="Rounded_Rectangle_3_copy_3" data-name="Rounded Rectangle 3 copy 3" class="cls-10" x="697" y="208" width="8" height="22" rx="4" ry="4"/>
    <rect id="Rounded_Rectangle_3_copy_2" data-name="Rounded Rectangle 3 copy 2" class="cls-11" x="693" y="208" width="8" height="22" rx="4" ry="4"/>
    <rect id="Rounded_Rectangle_3_copy" data-name="Rounded Rectangle 3 copy" class="cls-12" x="840" y="208" width="8" height="22" rx="4" ry="4"/>
    <rect id="Rounded_Rectangle_3_copy_5" data-name="Rounded Rectangle 3 copy 5" class="cls-10" x="844" y="208" width="8" height="22" rx="4" ry="4"/>
    <rect id="Rounded_Rectangle_3_copy_4" data-name="Rounded Rectangle 3 copy 4" class="cls-11" x="840" y="208" width="8" height="22" rx="4" ry="4"/>
    <path id="Shape_8_copy" data-name="Shape 8 copy" class="cls-5" d="M686,262l166,1s7.172,19.423,32,14c0,0,1.3,13.305-25.2,15H675.948c-0.108-.127-21.656-0.4-22.948-16C655.669,279.15,680.567,278.655,686,262Z"/>
    <path id="Shape_8_copy_5" data-name="Shape 8 copy 5" class="cls-1" d="M693.408,261.99l165.621,1.037c-3.446.048,4.491,17.405,29.971,11.973,0,0-.49,16.6-21.2,17H684.948c-0.108-.127-22.656,4.6-23.948-11C663.624,284.15,685.786,281.444,693.408,261.99Z"/>
    <path id="Shape_8_copy_4" data-name="Shape 8 copy 4" class="cls-4" d="M686,262H853s6.172,20.423,31,15c0,0,1.3,13.305-25.2,15H675.948c-0.108-.127-21.656-0.4-22.948-16C655.669,279.15,680.567,278.655,686,262Z"/>
    <path class="cls-4" d="M683,268H855"/>
    <path class="cls-4" d="M675,274H862"/>
    <rect id="Rounded_Rectangle_5_copy_7" data-name="Rounded Rectangle 5 copy 7" class="cls-12" x="719" y="302" width="24" height="28" rx="6" ry="6"/>
    <rect id="Rounded_Rectangle_5_copy_16" data-name="Rounded Rectangle 5 copy 16" class="cls-10" x="724" y="302" width="23" height="28" rx="6" ry="6"/>
    <rect id="Rounded_Rectangle_5_copy_15" data-name="Rounded Rectangle 5 copy 15" class="cls-11" x="719" y="302" width="24" height="28" rx="6" ry="6"/>
    <rect id="Rounded_Rectangle_5_copy_6" data-name="Rounded Rectangle 5 copy 6" class="cls-12" x="685" y="302" width="27" height="28" rx="6" ry="6"/>
    <rect id="Rounded_Rectangle_5_copy_12" data-name="Rounded Rectangle 5 copy 12" class="cls-10" x="690" y="302" width="26" height="28" rx="6" ry="6"/>
    <rect id="Rounded_Rectangle_5_copy_11" data-name="Rounded Rectangle 5 copy 11" class="cls-11" x="685" y="302" width="27" height="28" rx="6" ry="6"/>
    <rect id="Rounded_Rectangle_5_copy_9" data-name="Rounded Rectangle 5 copy 9" class="cls-12" x="796" y="302" width="26" height="28" rx="6" ry="6"/>
    <rect id="Rounded_Rectangle_5_copy_24" data-name="Rounded Rectangle 5 copy 24" class="cls-10" x="801" y="302" width="25" height="28" rx="6" ry="6"/>
    <rect id="Rounded_Rectangle_5_copy_23" data-name="Rounded Rectangle 5 copy 23" class="cls-11" x="796" y="302" width="26" height="28" rx="6" ry="6"/>
    <rect id="Rounded_Rectangle_5_copy_10" data-name="Rounded Rectangle 5 copy 10" class="cls-12" x="829" y="302" width="26" height="28" rx="6" ry="6"/>
    <rect id="Rounded_Rectangle_5_copy_28" data-name="Rounded Rectangle 5 copy 28" class="cls-10" x="834" y="302" width="25" height="28" rx="6" ry="6"/>
    <rect id="Rounded_Rectangle_5_copy_27" data-name="Rounded Rectangle 5 copy 27" class="cls-11" x="829" y="302" width="26" height="28" rx="6" ry="6"/>
    <rect id="Rounded_Rectangle_5_copy_8" data-name="Rounded Rectangle 5 copy 8" class="cls-12" x="750" y="302" width="39" height="28" rx="6" ry="6"/>
    <rect id="Rounded_Rectangle_5_copy_20" data-name="Rounded Rectangle 5 copy 20" class="cls-10" x="755" y="302" width="38" height="28" rx="6" ry="6"/>
    <rect id="Rounded_Rectangle_5_copy_19" data-name="Rounded Rectangle 5 copy 19" class="cls-11" x="750" y="302" width="39" height="28" rx="6" ry="6"/>
    <path class="cls-5" d="M693,220H848s0.34,25.884,24,23c0,0,1.685,11.5-20,12H687s-17.943-1.874-18-11C669,244,692.393,248.542,693,220Z"/>
    <path id="Shape_8_copy_3" data-name="Shape 8 copy 3" class="cls-1" d="M700,220l152,1s2.293,22.351,24,21c0,0,.441,12.977-17,13H694s-16.943,2.126-17-7C677,248,699.393,248.542,700,220Z"/>
    <path id="Shape_8_copy_2" data-name="Shape 8 copy 2" class="cls-4" d="M693,220H848s0.34,25.884,24,23c0,0,1.685,11.5-20,12H687s-17.943-1.874-18-11C669,244,692.393,248.542,693,220Z"/>
    <path class="cls-4" d="M693,226H847"/>
    <path id="Shape_520_copy" data-name="Shape 520 copy" class="cls-4" d="M691,232H850"/>
    <path id="Shape_520_copy_2" data-name="Shape 520 copy 2" class="cls-4" d="M688,238H855"/>
    <path class="cls-5" d="M655,326H882l26,37H630.545Z"/>
    <path id="Rectangle_1_copy_2" data-name="Rectangle 1 copy 2" class="cls-1" d="M661,326H888l26,37H636.545Z"/>
    <path id="Rectangle_1_copy" data-name="Rectangle 1 copy" class="cls-4" d="M654,326H883l25.525,37H629.545Z"/>
    <path class="cls-5" d="M686,328h27l-12,32H669Z"/>
    <path class="cls-5" d="M750,328h41l6,33H744Z"/>
    <path class="cls-5" d="M829,328h29l18,33H842Z"/>
    <g id="stairs">
      <path class="cls-6" d="M687,328l-19,34"/>
      <path class="cls-6" d="M710,327l-12,34"/>
      <path class="cls-6" d="M751,327l-6,35"/>
      <path class="cls-6" d="M788,327l6,35"/>
      <path class="cls-6" d="M830,326l13,36"/>
      <path class="cls-6" d="M854,326l18,35"/>
      <path class="cls-6" d="M682,335h24"/>
      <path class="cls-6" d="M678,343h24"/>
      <path class="cls-6" d="M673,351h27"/>
      <path class="cls-6" d="M749,335h39"/>
      <path class="cls-6" d="M748,343h41"/>
      <path class="cls-6" d="M746,351h45"/>
      <path class="cls-6" d="M833,335h24"/>
      <path id="Shape_21_copy" data-name="Shape 21 copy" class="cls-6" d="M835,343h26"/>
      <path id="Shape_21_copy_2" data-name="Shape 21 copy 2" class="cls-6" d="M838,351h28"/>
    </g>
  </g>
</svg>
