<svg id="illustration1" xmlns="http://www.w3.org/2000/svg" width="1100" height="400" viewBox="0 0 1100 400">
  <defs>
    <style>
      .cls-1, .cls-3 {
        fill: #ddeefe;
      }

      .cls-1, .cls-2, .cls-3, .cls-4, .cls-5, .cls-6, .cls-8 {
        fill-rule: evenodd;
      }

      .cls-2, .cls-5, .cls-7, .cls-8 {
        fill: none;
      }

      .cls-2, .cls-3, .cls-5, .cls-7, .cls-8 {
        stroke: #42a9f7;
        stroke-width: 1.2px;
      }

      .cls-2, .cls-3 {
        stroke-linecap: round;
      }

      .cls-2, .cls-3, .cls-6 {
        stroke-linejoin: round;
      }

      .cls-4 {
        fill: #fff;
      }

      .cls-6 {
        fill: #42a9f7;
        stroke: #fff;
        stroke-width: 1px;
      }

      .cls-8 {
        stroke-dasharray: 7.48 3.74;
      }
    </style>
  </defs>
  <g>
    <g id="golden_bridge" data-name="golden bridge">
      <g id="tower_link2" data-name="tower link2">
        <g id="tower_link1" data-name="tower link1">
          <path class="cls-1" d="M741.5,117.8h16.51V128H741.5V117.8Z"/>
          <path id="Shape_1_copy" data-name="Shape 1 copy" class="cls-2" d="M732.853,117.8h25.159V128H732.853V117.8Z"/>
        </g>
        <g id="tower_link2-2" data-name="tower link2">
          <path class="cls-1" d="M743.074,149.165h13.365v10.193H743.074V149.165Z"/>
          <path id="Shape_1_copy-2" data-name="Shape 1 copy" class="cls-2" d="M732.853,149.165h23.586v10.193H732.853V149.165Z"/>
        </g>
        <g id="tower_link3" data-name="tower link3">
          <path class="cls-1" d="M744.646,182.879h10.221v10.192H744.646V182.879Z"/>
          <path id="Shape_1_copy-3" data-name="Shape 1 copy" class="cls-2" d="M732.853,182.879h22.014v11.76H732.853v-11.76Z"/>
        </g>
        <g id="tower_link4" data-name="tower link4">
          <path class="cls-1" d="M746.219,224.433H753.3v10.976h-7.076V224.433Z"/>
          <path id="Shape_1_copy-4" data-name="Shape 1 copy" class="cls-2" d="M732.853,224.433H753.3v12.544H732.853V224.433Z"/>
        </g>
      </g>
      <g id="tower1">
        <path id="tower1-2" data-name="tower1" class="cls-1" d="M740.716,113.884l-3.931-7.056-4.718,7.056v32.145H730.5v33.714h-1.572V222.08H727.35v56.451h-2.358v5.488h1.572v4.7h1.572v29.793h-1.572v9.409h-1.572v12.544h-7.076v3.92h29.875v-15.68h-1.572V318.516h-1.573V288.723h1.573V284.8h1.572v-5.488h-1.572v-7.841h-0.786v-48.61H743.86V180.527h-1.572v-34.5h-1.572V113.884Z"/>
        <path id="tower1_copy_2" data-name="tower1 copy 2" class="cls-2" d="M737.571,115.452L733.64,108.4l-4.717,7.056V147.6H727.35v33.714h-1.572v42.337h-1.573V280.1h-2.358v5.488h1.572v4.7h1.573v29.793h-1.573v9.409h-1.572v12.544h-7.076v3.921h29.875V330.277h-1.572V320.084H741.5V290.291h1.572v-3.92h1.572v-5.488h-1.572v-7.84h-0.786v-48.61h-1.572V182.1h-1.573V147.6h-1.572V115.452Z"/>
      </g>
      <g id="tower_link1-2" data-name="tower link1">
        <g>
          <g id="tower_link1-3" data-name="tower link1">
            <path class="cls-1" d="M364.127,117.8h16.51V128h-16.51V117.8Z"/>
            <path id="Shape_1_copy-5" data-name="Shape 1 copy" class="cls-2" d="M355.479,117.8h25.158V128H355.479V117.8Z"/>
          </g>
          <g id="tower_link2-3" data-name="tower link2">
            <path class="cls-1" d="M365.7,149.165h13.366v10.193H365.7V149.165Z"/>
            <path id="Shape_1_copy-6" data-name="Shape 1 copy" class="cls-2" d="M355.479,149.165h23.586v10.193H355.479V149.165Z"/>
          </g>
          <g id="tower_link3-2" data-name="tower link3">
            <path class="cls-1" d="M367.272,182.879h10.22v10.192h-10.22V182.879Z"/>
            <path id="Shape_1_copy-7" data-name="Shape 1 copy" class="cls-2" d="M355.479,182.879h22.013v11.76H355.479v-11.76Z"/>
          </g>
          <g id="tower_link4-2" data-name="tower link4">
            <path class="cls-1" d="M368.844,224.433h7.076v10.976h-7.076V224.433Z"/>
            <path id="Shape_1_copy-8" data-name="Shape 1 copy" class="cls-2" d="M355.479,224.433H375.92v12.544H355.479V224.433Z"/>
          </g>
        </g>
      </g>
      <g id="tower1-3" data-name="tower1">
        <path id="tower1-4" data-name="tower1" class="cls-1" d="M362.555,113.884l-3.931-7.056-4.718,7.056v32.145h-1.572v33.714h-1.572V222.08h-1.573v56.451h-2.358v5.488H348.4v4.7h1.572v29.793H348.4v9.409h-1.572v12.544h-7.076v3.92H369.63v-15.68h-1.572V318.516h-1.572V288.723h1.572V284.8h1.572v-5.488h-1.572v-7.841h-0.786v-48.61H365.7V180.527h-1.572v-34.5h-1.572V113.884Z"/>
        <path id="tower1_copy_2-2" data-name="tower1 copy 2" class="cls-2" d="M359.41,115.452l-3.931-7.056-4.717,7.056V147.6h-1.573v33.714h-1.572v42.337h-1.572V280.1h-2.359v5.488h1.572v4.7h1.573v29.793h-1.573v9.409h-1.572v12.544H336.61v3.921h29.876V330.277h-1.573V320.084h-1.572V290.291h1.572v-3.92h1.573v-5.488h-1.573v-7.84h-0.786v-48.61h-1.572V182.1h-1.573V147.6H359.41V115.452Z"/>
      </g>
      <g id="bridge_string_" data-name="bridge string              ">
        <path class="cls-2" d="M359.41,116.236s-0.871,152.291,173.943,146.272c11.649-.4,39.817-0.969,52.073-1.683,45.014-2.619,134.661-23.389,144.283-146.157"/>
        <path id="Shape_7_copy" data-name="Shape 7 copy" class="cls-2" d="M770.591,116.236s-0.855,130.5,138.371,145.046"/>
        <path class="cls-2" d="M390.072,115.452S392.4,252.257,531.083,259.928c5.424,0.3,18.736,1,33.177,1.486,11.393,0.384,23.487.635,32.963,0.452,55.318-1.071,153.745-20.968,164.72-147.2"/>
        <path id="Shape_6_copy" data-name="Shape 6 copy" class="cls-2" d="M739.143,115.452s-1.728,135.177,141.012,144.476c4.868,0.317,16.1.861,28.8,1.332"/>
        <path class="cls-2" d="M379,141S368.33,266.812,210,263c0,0,126.716-12.866,141-133"/>
      </g>
      <g id="road_line" data-name="road line">
        <path id="line" class="cls-2" d="M211.605,269.122H908.962"/>
        <path id="bottom" class="cls-3" d="M210.032,271.474v9.409H909.748v-9.409H210.032Z"/>
      </g>
      <g id="VS">
        <g id="V_S_1" data-name="V S 1">
          <g id="vertical_string_1" data-name="vertical string 1">
            <path class="cls-2" d="M404.966,180.482v88.035"/>
            <path id="Shape_8_copy" data-name="Shape 8 copy" class="cls-2" d="M417.549,201.936v66.581"/>
            <path id="Shape_8_copy_2" data-name="Shape 8 copy 2" class="cls-2" d="M430.132,216.732v51.785"/>
            <path id="Shape_8_copy_3" data-name="Shape 8 copy 3" class="cls-2" d="M442.715,228.569v39.948"/>
            <path id="Shape_8_copy_4" data-name="Shape 8 copy 4" class="cls-2" d="M455.3,237.446v31.071"/>
            <path id="Shape_8_copy_5" data-name="Shape 8 copy 5" class="cls-2" d="M467.905,244.817l-0.025,23.7"/>
            <path id="Shape_8_copy_6" data-name="Shape 8 copy 6" class="cls-2" d="M480.484,251.09l-0.021,17.427"/>
            <path id="Shape_8_copy_7" data-name="Shape 8 copy 7" class="cls-2" d="M493.063,255.01l-0.017,13.507"/>
            <path id="Shape_8_copy_8" data-name="Shape 8 copy 8" class="cls-2" d="M505.643,258.146l-0.015,10.371"/>
            <path id="Shape_8_copy_28" data-name="Shape 8 copy 28" class="cls-2" d="M518.222,260.5l-0.011,8.019"/>
            <path id="Shape_8_copy_28-2" data-name="Shape 8 copy 28" class="cls-2" d="M530.8,260.5l-0.007,8.019"/>
            <path id="Shape_8_copy_28-3" data-name="Shape 8 copy 28" class="cls-2" d="M543.38,261.282l0,7.235"/>
            <path id="Shape_8_copy_30" data-name="Shape 8 copy 30" class="cls-2" d="M555.959,262.066v6.451"/>
          </g>
          <g id="vertical_string_2" data-name="vertical string 2">
            <path id="Shape_8_copy_10" data-name="Shape 8 copy 10" class="cls-2" d="M398.675,216.732v51.785"/>
            <path id="Shape_8_copy_11" data-name="Shape 8 copy 11" class="cls-2" d="M411.258,227.829v40.688"/>
            <path id="Shape_8_copy_12" data-name="Shape 8 copy 12" class="cls-2" d="M423.878,237.761l-0.037,30.756"/>
            <path id="Shape_8_copy_13" data-name="Shape 8 copy 13" class="cls-2" d="M436.457,244.817l-0.034,23.7"/>
            <path id="Shape_8_copy_14" data-name="Shape 8 copy 14" class="cls-2" d="M449.036,250.306l-0.03,18.211"/>
            <path id="Shape_8_copy_15" data-name="Shape 8 copy 15" class="cls-2" d="M461.615,255.01l-0.026,13.507"/>
            <path id="Shape_8_copy_16" data-name="Shape 8 copy 16" class="cls-2" d="M474.2,258.146l-0.024,10.371"/>
            <path id="Shape_8_copy_17" data-name="Shape 8 copy 17" class="cls-2" d="M486.774,260.5l-0.02,8.019"/>
            <path id="Shape_8_copy_18" data-name="Shape 8 copy 18" class="cls-2" d="M499.353,262.066l-0.016,7.191"/>
            <path id="Shape_8_copy_19" data-name="Shape 8 copy 19" class="cls-2" d="M511.932,263.634l-0.012,5.623"/>
            <path id="Shape_8_copy_27" data-name="Shape 8 copy 27" class="cls-2" d="M524.5,261.119V270"/>
            <path id="Shape_8_copy_27-2" data-name="Shape 8 copy 27" class="cls-2" d="M537.085,261.119v8.138"/>
            <path id="Shape_8_copy_29" data-name="Shape 8 copy 29" class="cls-2" d="M549.67,262.066l0,7.191"/>
          </g>
        </g>
        <g id="V_S_2" data-name="V S 2">
          <g id="vertical_string_1-2" data-name="vertical string 1">
            <path class="cls-2" d="M337.426,180.437v88.125"/>
            <path id="Shape_8_copy-2" data-name="Shape 8 copy" class="cls-2" d="M324.833,201.913v66.649"/>
            <path id="Shape_8_copy_2-2" data-name="Shape 8 copy 2" class="cls-2" d="M312.24,216.724v51.838"/>
            <path id="Shape_8_copy_3-2" data-name="Shape 8 copy 3" class="cls-2" d="M299.586,227.089l0.061,41.473"/>
            <path id="Shape_8_copy_4-2" data-name="Shape 8 copy 4" class="cls-2" d="M287,235.967l0.051,32.6"/>
            <path id="Shape_8_copy_5-2" data-name="Shape 8 copy 5" class="cls-2" d="M274.5,244.033l-0.04,24.529"/>
            <path id="Shape_8_copy_6-2" data-name="Shape 8 copy 6" class="cls-2" d="M261.921,249.522l-0.052,19.04"/>
            <path id="Shape_8_copy_7-2" data-name="Shape 8 copy 7" class="cls-2" d="M249,255l0.276,13.562"/>
            <path id="Shape_8_copy_8-2" data-name="Shape 8 copy 8" class="cls-2" d="M237,259l-0.317,9.562"/>
            <path id="Shape_8_copy_9" data-name="Shape 8 copy 9" class="cls-2" d="M224,262l0.09,6.562"/>
          </g>
          <g id="vertical_string_2-2" data-name="vertical string 2">
            <path id="Shape_8_copy_10-2" data-name="Shape 8 copy 10" class="cls-2" d="M343.723,216.724v51.838"/>
            <path id="Shape_8_copy_11-2" data-name="Shape 8 copy 11" class="cls-2" d="M331.13,227.832v40.73"/>
            <path id="Shape_8_copy_12-2" data-name="Shape 8 copy 12" class="cls-2" d="M318.528,237.761l0.009,30.8"/>
            <path id="Shape_8_copy_13-2" data-name="Shape 8 copy 13" class="cls-2" d="M305.948,244.817l0,23.745"/>
            <path id="Shape_8_copy_14-2" data-name="Shape 8 copy 14" class="cls-2" d="M293.369,250.306l-0.018,18.256"/>
            <path id="Shape_8_copy_15-2" data-name="Shape 8 copy 15" class="cls-2" d="M280.79,254.226l-0.032,14.336"/>
            <path id="Shape_8_copy_16-2" data-name="Shape 8 copy 16" class="cls-2" d="M268.211,257.362l-0.046,11.2"/>
            <path id="Shape_8_copy_17-2" data-name="Shape 8 copy 17" class="cls-2" d="M255.632,259.714l-0.06,8.848"/>
            <path id="Shape_8_copy_18-2" data-name="Shape 8 copy 18" class="cls-2" d="M243.053,261.282l-0.074,8.021"/>
            <path id="Shape_8_copy_19-2" data-name="Shape 8 copy 19" class="cls-2" d="M230.474,262.066l-0.088,7.237"/>
            <path id="Shape_8_copy_20" data-name="Shape 8 copy 20" class="cls-2" d="M218,262v8"/>
            <path id="Shape_8_copy_21" data-name="Shape 8 copy 21" class="cls-2" d="M211,264v5"/>
          </g>
        </g>
      </g>
      <g id="VS_2" data-name="VS 2">
        <g id="V_S_1-2" data-name="V S 1">
          <g id="vertical_string_1-3" data-name="vertical string 1">
            <path class="cls-2" d="M783.921,176.546v93.373"/>
            <path id="Shape_8_copy-3" data-name="Shape 8 copy" class="cls-2" d="M796.5,199.7v70.223"/>
            <path id="Shape_8_copy_2-3" data-name="Shape 8 copy 2" class="cls-2" d="M809.086,215.13v54.789"/>
            <path id="Shape_8_copy_3-3" data-name="Shape 8 copy 3" class="cls-2" d="M821.669,226.705v43.214"/>
            <path id="Shape_8_copy_4-3" data-name="Shape 8 copy 4" class="cls-2" d="M834.252,236.737v33.182"/>
            <path id="Shape_8_copy_5-3" data-name="Shape 8 copy 5" class="cls-2" d="M846.834,243.682v26.237"/>
            <path id="Shape_8_copy_6-3" data-name="Shape 8 copy 6" class="cls-2" d="M859.417,249.855v20.064"/>
            <path id="Shape_8_copy_7-3" data-name="Shape 8 copy 7" class="cls-2" d="M872.01,255.01L872,269.919"/>
            <path id="Shape_8_copy_8-3" data-name="Shape 8 copy 8" class="cls-2" d="M884.59,258.146l-0.008,11.773"/>
            <path id="Shape_8_copy_9-2" data-name="Shape 8 copy 9" class="cls-2" d="M897.169,260.5l0,9.421"/>
          </g>
          <g id="vertical_string_2-3" data-name="vertical string 2">
            <path id="Shape_8_copy_10-3" data-name="Shape 8 copy 10" class="cls-2" d="M777.667,216.592l-0.038,52.555"/>
            <path id="Shape_8_copy_11-3" data-name="Shape 8 copy 11" class="cls-2" d="M790.246,228.353l-0.034,40.794"/>
            <path id="Shape_8_copy_12-3" data-name="Shape 8 copy 12" class="cls-2" d="M802.825,236.977l-0.03,32.17"/>
            <path id="Shape_8_copy_13-3" data-name="Shape 8 copy 13" class="cls-2" d="M815.4,244.817l-0.027,24.33"/>
            <path id="Shape_8_copy_14-3" data-name="Shape 8 copy 14" class="cls-2" d="M827.96,249.084v20.063"/>
            <path id="Shape_8_copy_15-3" data-name="Shape 8 copy 15" class="cls-2" d="M840.543,253.714v15.433"/>
            <path id="Shape_8_copy_16-3" data-name="Shape 8 copy 16" class="cls-2" d="M853.126,256.8v13.119"/>
            <path id="Shape_8_copy_17-3" data-name="Shape 8 copy 17" class="cls-2" d="M865.708,258.344v11.575"/>
            <path id="Shape_8_copy_18-3" data-name="Shape 8 copy 18" class="cls-2" d="M878.3,261.282l-0.009,8.637"/>
            <path id="Shape_8_copy_19-3" data-name="Shape 8 copy 19" class="cls-2" d="M890.879,261.282l0,8.637"/>
            <path id="Shape_8_copy_22" data-name="Shape 8 copy 22" class="cls-2" d="M903.458,262.066v7.853"/>
            <path id="Shape_8_copy_23" data-name="Shape 8 copy 23" class="cls-2" d="M909.748,262.066v7.853"/>
          </g>
        </g>
        <g id="V_S_2-2" data-name="V S 2">
          <g id="vertical_string_1-4" data-name="vertical string 1">
            <path class="cls-2" d="M716.38,178.042v91.923"/>
            <path id="Shape_8_copy-4" data-name="Shape 8 copy" class="cls-2" d="M703.787,200.443v69.522"/>
            <path id="Shape_8_copy_2-4" data-name="Shape 8 copy 2" class="cls-2" d="M691.185,216.592v53.314"/>
            <path id="Shape_8_copy_3-4" data-name="Shape 8 copy 3" class="cls-2" d="M678.6,228.252v41.713"/>
            <path id="Shape_8_copy_4-4" data-name="Shape 8 copy 4" class="cls-2" d="M666.009,237.522v32.443"/>
            <path id="Shape_8_copy_5-4" data-name="Shape 8 copy 5" class="cls-2" d="M653.416,244.474v25.491"/>
            <path id="Shape_8_copy_6-4" data-name="Shape 8 copy 6" class="cls-2" d="M640.823,249.881v20.084"/>
            <path id="Shape_8_copy_7-4" data-name="Shape 8 copy 7" class="cls-2" d="M628.289,254.226l-0.059,15.739"/>
            <path id="Shape_8_copy_8-4" data-name="Shape 8 copy 8" class="cls-2" d="M615.71,258.146l-0.073,11.819"/>
            <path id="Shape_8_copy_9-3" data-name="Shape 8 copy 9" class="cls-2" d="M603.131,259.714l-0.087,10.251"/>
            <path id="Shape_8_copy_24" data-name="Shape 8 copy 24" class="cls-2" d="M590.552,261.282l-0.081,8.683"/>
            <path id="Shape_8_copy_24-2" data-name="Shape 8 copy 24" class="cls-2" d="M577.973,262.066l-0.095,7.9"/>
          </g>
          <g id="vertical_string_2-4" data-name="vertical string 2">
            <path id="Shape_8_copy_10-4" data-name="Shape 8 copy 10" class="cls-2" d="M722.633,215.808l0.044,53.386"/>
            <path id="Shape_8_copy_11-4" data-name="Shape 8 copy 11" class="cls-2" d="M710.054,227.569l0.03,41.625"/>
            <path id="Shape_8_copy_12-4" data-name="Shape 8 copy 12" class="cls-2" d="M697.475,236.193l0.016,33"/>
            <path id="Shape_8_copy_13-4" data-name="Shape 8 copy 13" class="cls-2" d="M684.9,243.249l0,25.945"/>
            <path id="Shape_8_copy_14-4" data-name="Shape 8 copy 14" class="cls-2" d="M672.316,248.738l-0.011,20.456"/>
            <path id="Shape_8_copy_15-4" data-name="Shape 8 copy 15" class="cls-2" d="M659.737,253.442l-0.025,15.752"/>
            <path id="Shape_8_copy_16-4" data-name="Shape 8 copy 16" class="cls-2" d="M647.158,257.362l-0.039,11.832"/>
            <path id="Shape_8_copy_17-4" data-name="Shape 8 copy 17" class="cls-2" d="M634.579,259.714l-0.053,9.48"/>
            <path id="Shape_8_copy_18-4" data-name="Shape 8 copy 18" class="cls-2" d="M622,261.282l-0.067,8.684"/>
            <path id="Shape_8_copy_19-4" data-name="Shape 8 copy 19" class="cls-2" d="M609.421,262.066l-0.081,7.9"/>
            <path id="Shape_8_copy_25" data-name="Shape 8 copy 25" class="cls-2" d="M596.841,261.282l-0.063,7.912"/>
            <path id="Shape_8_copy_25-2" data-name="Shape 8 copy 25" class="cls-2" d="M584.262,262.066l-0.077,7.9"/>
            <path id="Shape_8_copy_25-3" data-name="Shape 8 copy 25" class="cls-2" d="M571.683,262.066l-0.091,7.9"/>
            <path id="Shape_8_copy_26" data-name="Shape 8 copy 26" class="cls-2" d="M565.394,262.066l-0.093,7.9"/>
          </g>
        </g>
      </g>
      <g id="tower1-5" data-name="tower1">
        <g id="tower2">
          <path id="tower1-6" data-name="tower1" class="cls-1" d="M390.858,113.884l-3.931-7.056-4.717,7.056v32.145h-1.573v33.714h-1.572V222.08h-1.573v56.451h-2.358v5.488h1.572v4.7h1.573v29.793h-1.573v9.409h-1.572v12.544h-7.076v3.92h29.876v-15.68h-1.573V318.516h-1.572V288.723h1.572V284.8h1.573v-5.488h-1.573v-7.841h-0.786v-48.61H394V180.527H392.43v-34.5h-1.572V113.884Z"/>
          <path id="tower1_copy_2-3" data-name="tower1 copy 2" class="cls-2" d="M387.713,115.452l-3.931-7.056-4.717,7.056V147.6h-1.573v33.714H375.92v42.337h-1.572V280.1h-2.359v5.488h1.572v4.7h1.573v29.793h-1.573v9.409h-1.572v12.544h-7.076v3.921h29.876V330.277h-1.573V320.084h-1.572V290.291h1.572v-3.92h1.573v-5.488h-1.573v-7.84H392.43v-48.61h-1.572V182.1h-1.573V147.6h-1.572V115.452Z"/>
        </g>
      </g>
      <g id="tower2-2" data-name="tower2">
        <g id="tower2-3" data-name="tower2">
          <path id="tower1-7" data-name="tower1" class="cls-1" d="M769.019,113.884l-3.931-7.056-4.718,7.056v32.145H758.8v33.714h-1.572V222.08h-1.573v56.451H753.3v5.488h1.572v4.7h1.572v29.793h-1.572v9.409H753.3v12.544h-7.076v3.92h29.875v-15.68h-1.572V318.516H772.95V288.723h1.572V284.8h1.572v-5.488h-1.572v-7.841h-0.786v-48.61h-1.573V180.527h-1.572v-34.5h-1.572V113.884Z"/>
          <path id="tower1_copy_2-4" data-name="tower1 copy 2" class="cls-2" d="M765.874,115.452l-3.931-7.056-4.717,7.056V147.6h-1.573v33.714h-1.572v42.337h-1.573V280.1H750.15v5.488h1.572v4.7H753.3v29.793h-1.573v9.409H750.15v12.544h-7.076v3.921H772.95V330.277h-1.573V320.084h-1.572V290.291h1.572v-3.92h1.573v-5.488h-1.573v-7.84h-0.786v-48.61h-1.572V182.1h-1.573V147.6h-1.572V115.452Z"/>
        </g>
      </g>
    </g>
    <g id="liberty">
      <path id="liberty-2" data-name="liberty" class="cls-4" d="M905.817,123.12s5.207-6.732,0-12.545c0,0-1.264-.644-2.359,3.92,0,0-.342-2.843-1.572-3.92,0,0-.021-1.368-1.572,3.136a2.315,2.315,0,0,1-1.573-2.352s-7.622,5.149,0,11.761v1.568H894.81v0.784h-1.572v5.488a7.588,7.588,0,0,1,4.717,5.488v0.784H895.6v10.193h3.145V153.7H901.1s-0.745,23.418,3.145,26.657c0,0-4.863,3.378-6.29,8.624a31.281,31.281,0,0,0,0,7.841s3.324,7.461,8.648,11.76c0,0,.481,1.369-2.358,6.272a5.071,5.071,0,0,0,2.358,5.489s-1.762,24.97-2.358,25.873a16.764,16.764,0,0,1,3.144,2.352v18.817s1.536,0.9,1.573,1.568l-0.787,28.225a42.989,42.989,0,0,1-6.289,3.136l-2.359,27.441h2.359s0.075,5.355-.786,6.272a29.919,29.919,0,0,1-7.862,2.352v10.977h69.971V337.16s-5.1-3.64-5.5-4.7l-1.572-14.9h2.358V300.311h1.573l-0.787-8.625h2.359l-2.359-29.009s8.493,0.365,7.862-17.248h3.145l7.076-14.113-0.786-1.568,3.931-6.272L964.782,212.5l-6.29,8.625-1.572-.784s-0.155-9.813-7.076-14.113c0,0-8.8-2.542-8.648-11.761h0.786l-0.786-5.488H940.41v-7.056l0.786-1.568h8.648l-8.648-3.136v-0.784l10.22-5.488L940.41,173.3l-2.359-1.568,6.29-10.977-9.435,8.624h-3.145L929.4,156.049l-1.573,13.328-2.358.785-8.648-7.841,5.5,10.193-0.786,1.568L911.32,173.3l9.435,3.136V178l-7.862,3.136,8.648-.784v2.352l-0.786.784v2.352h0.786s-1.1,3.434-2.359,3.136c0,0-1.08-11.836-6.289-10.976a50.745,50.745,0,0,0-.786-10.193s-2.786-7.176-3.932-10.976c0,0-1.051-10.822-.786-15.681a4.206,4.206,0,0,0-2.358-3.92V134.88s0.419-2.769,4.717-3.92v-6.272h-3.931V123.12Z"/>
      <path id="liberty_copy_2" data-name="liberty copy 2" class="cls-1" d="M908.175,123.12s5.208-6.732,0-12.545c0,0-1.264-.644-2.358,3.92,0,0-.342-2.843-1.572-3.92,0,0-.022-1.368-1.573,3.136a2.314,2.314,0,0,1-1.572-2.352s-7.622,5.149,0,11.761v1.568h-3.931v0.784H895.6v5.488a7.589,7.589,0,0,1,4.718,5.488v0.784h-2.359v10.193H901.1V153.7h2.358s-0.744,23.418,3.145,26.657c0,0-4.862,3.378-6.289,8.624a31.281,31.281,0,0,0,0,7.841s3.323,7.461,8.648,11.76c0,0,.48,1.369-2.359,6.272a5.073,5.073,0,0,0,2.359,5.489s-1.762,24.97-2.359,25.873a16.787,16.787,0,0,1,3.145,2.352v18.817s1.536,0.9,1.572,1.568l-0.786,28.225a42.989,42.989,0,0,1-6.289,3.136l-2.359,27.441h2.359s0.075,5.355-.787,6.272a29.9,29.9,0,0,1-7.862,2.352v10.977h69.972V337.16s-5.1-3.64-5.5-4.7l-1.573-14.9h2.359V300.311h1.572l-0.786-8.625H964l-2.359-29.009s8.492,0.365,7.862-17.248h3.145l7.075-14.113-0.786-1.568,3.931-6.272L967.14,212.5l-6.289,8.625-1.573-.784s-0.154-9.813-7.075-14.113c0,0-8.8-2.542-8.649-11.761h0.787l-0.787-5.488h-0.786v-7.056l0.786-1.568H952.2l-8.649-3.136v-0.784l10.221-5.488L942.768,173.3l-2.358-1.568,6.289-10.977-9.434,8.624H934.12l-2.359-13.328-1.572,13.328-2.359.785-8.648-7.841,5.5,10.193-0.787,1.568-10.22-.784,9.434,3.136V178l-7.862,3.136,8.648-.784v2.352l-0.786.784v2.352H923.9s-1.1,3.434-2.358,3.136c0,0-1.08-11.836-6.29-10.976a50.663,50.663,0,0,0-.786-10.193s-2.785-7.176-3.931-10.976c0,0-1.052-10.822-.786-15.681a4.208,4.208,0,0,0-2.359-3.92V134.88s0.42-2.769,4.718-3.92v-6.272h-3.932V123.12Z"/>
      <path id="liberty_copy" data-name="liberty copy" class="cls-5" d="M905.031,122.336s5.207-6.732,0-12.545c0,0-1.265-.644-2.359,3.92,0,0-.342-2.843-1.572-3.92,0,0-.022-1.368-1.573,3.136a2.315,2.315,0,0,1-1.572-2.352s-7.622,5.149,0,11.761V123.9h-3.931v0.784h-1.572v5.488a7.588,7.588,0,0,1,4.717,5.488v0.784H894.81v10.193h3.145v6.272h2.359s-0.745,23.418,3.144,26.657c0,0-4.862,3.378-6.289,8.624a31.281,31.281,0,0,0,0,7.841s3.324,7.46,8.648,11.76c0,0,.48,1.369-2.359,6.272a5.073,5.073,0,0,0,2.359,5.489s-1.762,24.97-2.359,25.873a16.787,16.787,0,0,1,3.145,2.352V266.6s1.536,0.9,1.572,1.569l-0.786,28.225a42.989,42.989,0,0,1-6.289,3.136l-2.359,27.441H901.1s0.075,5.355-.786,6.272a29.919,29.919,0,0,1-7.862,2.352v10.977h69.971V336.376s-5.1-3.64-5.5-4.7l-1.573-14.9h2.359V299.527h1.572l-0.786-8.625h2.359l-2.359-29.009s8.493,0.365,7.862-17.248H969.5l7.076-14.113-0.787-1.568,3.931-6.272L964,211.715l-6.29,8.625-1.572-.784s-0.155-9.813-7.076-14.113c0,0-8.8-2.542-8.648-11.761H941.2l-0.786-5.488h-0.787v-7.056l0.787-1.568h8.648l-8.648-3.136V175.65l10.22-5.488-11.007,2.352-2.358-1.568,6.289-10.977-9.434,8.624h-3.145l-2.358-13.328-1.573,13.328-2.358.784-8.649-7.84,5.5,10.193-0.786,1.568-10.221-.784,9.434,3.136v1.568l-7.861,3.136,8.648-.784v2.352l-0.787.784v2.352h0.787s-1.1,3.434-2.359,3.136c0,0-1.08-11.836-6.289-10.976a50.7,50.7,0,0,0-.787-10.193s-2.785-7.176-3.931-10.976c0,0-1.052-10.822-.786-15.681a4.206,4.206,0,0,0-2.358-3.92V134.1s0.419-2.769,4.717-3.92V123.9h-3.931v-1.568Z"/>
      <path class="cls-5" d="M908.175,296.391s34.635-12.562,48.745-76.835"/>
      <path class="cls-5" d="M902.672,326.968s52.235,0.779,55.034-105.844"/>
    </g>
    <g id="Opera_House" data-name="Opera House">
      <path id="Shape_1_copy_3" data-name="Shape 1 copy 3" class="cls-4" d="M368.836,341.974l6.874-.131V336.2s0.235-1.619,1.586-1.312l2.115,1.312,0.133-3.018-1.322-1.443a1.293,1.293,0,0,1,.4-1.968,24.726,24.726,0,0,1,13.881-4.723l-6.875-19.812a1.347,1.347,0,0,1,1.058-1.706s10.7-3.856,28.025.787c0,0,60.681,7.184,73.235,5.9,0,0,21.741-15.9,47.722-7.609,0,0,1.841.7,0.529,3.411l-7.138,12.464,12.294,4.068a48.577,48.577,0,0,1,40.186-6.429s2.522,1.378.4,3.28L569.9,329.641v3.805l10.444,3.936,4.23,4.986,15.731,0.131s1.812,0.978,0,1.837l-231.471.131A1.512,1.512,0,0,1,368.836,341.974Z"/>
      <path class="cls-4" d="M373.071,341.974l6.874-.131V336.2s0.235-1.619,1.586-1.312l2.115,1.312,0.133-3.018-1.322-1.443a1.293,1.293,0,0,1,.4-1.968,24.726,24.726,0,0,1,13.881-4.723l-6.875-19.812a1.347,1.347,0,0,1,1.058-1.706s10.7-3.856,28.025.787l-3.173-12.333s-0.5-1.438,1.322-1.575c0,0,10.44-1.318,26.307,5.9,0,0-6.3-20.842-6.478-21.124a1.526,1.526,0,0,1,1.587-2.231s34.08,0.489,53.67,37.262c0,0,21.741-15.9,47.722-7.609,0,0,1.841.7,0.529,3.411l-7.138,12.464,12.294,4.068a48.577,48.577,0,0,1,40.186-6.429s2.522,1.378.4,3.28l-12.03,10.234v3.805l10.444,3.936,4.23,4.986,15.731,0.131s1.812,0.978,0,1.837l-231.471.131A1.512,1.512,0,0,1,373.071,341.974Z"/>
      <path id="Shape_1_copy_2" data-name="Shape 1 copy 2" class="cls-1" d="M373.918,345.357l6.874-.131v-5.642s0.235-1.619,1.586-1.312l2.115,1.312,0.133-3.018-1.322-1.443a1.293,1.293,0,0,1,.4-1.968,24.732,24.732,0,0,1,13.881-4.724l-6.875-19.812a1.346,1.346,0,0,1,1.058-1.705s10.7-3.857,28.025.787l-3.173-12.333s-0.5-1.438,1.322-1.575c0,0,10.44-1.318,26.307,5.9,0,0-6.3-20.841-6.478-21.124a1.526,1.526,0,0,1,1.587-2.23s34.08,0.489,53.67,37.262c0,0,21.741-15.9,47.722-7.61,0,0,1.841.7,0.529,3.412l-7.139,12.464,12.294,4.068a48.578,48.578,0,0,1,40.187-6.43s2.522,1.379.4,3.281l-12.03,10.234v3.805l10.444,3.936,4.23,4.986,15.731,0.131s1.812,0.978,0,1.837l-231.471.131A1.512,1.512,0,0,1,373.918,345.357Z"/>
      <path class="cls-6" d="M366.517,346.293h243.4a1.107,1.107,0,1,0,0-2.214h-16.99l-3.9-4.908a1.115,1.115,0,0,0-.482-0.351l-11.358-4.261v-5.041l12.962-11.181a1.1,1.1,0,0,0,.351-1.1,1.111,1.111,0,0,0-.821-0.813c-21.622-5.161-38.519,4.867-41.586,6.856a141.566,141.566,0,0,0-14.567-4.412l8.373-15.019a1.093,1.093,0,0,0,.048-0.973,1.112,1.112,0,0,0-.746-0.634,60.446,60.446,0,0,0-49.8,8.742c-20.535-39.093-55.885-40.088-56.244-40.094a1.11,1.11,0,0,0-1.073,1.463c2.788,8.148,5.082,16.151,6.969,23.661a66.391,66.391,0,0,0-28.333-6.957,1,1,0,0,0-.9.439,1.1,1.1,0,0,0-.182.979c0.031,0.106,1.54,5.3,3.105,13.421-4.644-1.321-17.38-4.268-29.87-1.136a1.1,1.1,0,0,0-.782,1.431l7.415,21.492a33.017,33.017,0,0,0-14.811,4.506,1.1,1.1,0,0,0-.248,1.64l1.391,1.642a1.083,1.083,0,0,0-.112.468v3.983l-1.68-.823a1.119,1.119,0,0,0-1.083.052,1.1,1.1,0,0,0-.526.94v5.986h-7.919A1.107,1.107,0,1,0,366.517,346.293Zm167.169-6.539h-11.8l6.11-10.958Zm2.51,0-10.444-20.1c3.2,0.4,10.352,1.688,21.727,5.754a21.171,21.171,0,0,1,2.2,10.885l-8.624-1.031a1.117,1.117,0,0,0-1.211.81l-1,3.68H536.2Zm5.554-2.178,8.2,0.98,2.035,4.18-10.912-2.679Zm33.926-1.216,11.789,4.423,2.619,3.3H560.306l14.65-12.636v3.881A1.108,1.108,0,0,0,575.676,336.36Zm11.332-18.245-29.982,25.858-2.223-.546-2.973-6.107a23.5,23.5,0,0,0-2.116-12.428C553.312,322.7,568.319,314.513,587.008,318.115Zm-47.767-14.069-7.981,14.316a45.03,45.03,0,0,0-7.407-1.1,1.035,1.035,0,0,0-.971.519,1.093,1.093,0,0,0-.046,1.093l3.926,7.555-7.43,13.326h-4.4l-22.31-26.918A58.051,58.051,0,0,1,539.241,304.046Zm-33.534,28.06-18.034,2.942a79.832,79.832,0,0,1,3.763-20.16Zm-20.262,2.805-15-4.269L488.771,315.9A80.639,80.639,0,0,0,485.445,334.911Zm-17.113-2.569,17.858,5.083a1.019,1.019,0,0,0,.227.032c0.018,0,.032.011,0.049,0.012H486.5a1.216,1.216,0,0,0,.181-0.014l20.667-3.373,4.7,5.672H459.117Zm21.3-19.979-34.056,27.391h-4.344A324.581,324.581,0,0,0,443.841,298a1.175,1.175,0,0,0-.029-0.117c-1.89-7.77-4.218-16.126-7.08-24.662C443.763,273.922,472.205,278.818,489.629,312.363Zm-47.862-13.452a322.555,322.555,0,0,1,7.218,40.843h-3.866l-3.1-6.488a1.114,1.114,0,0,0-.81-0.615l-14.653-2.621a1.127,1.127,0,0,0-1.2.607l-3.1,6.35h-1.811a186.589,186.589,0,0,0-3.142-31.541c0-.027-0.011-0.051-0.015-0.078-1.227-6.7-2.484-11.722-3.108-14.061A64.948,64.948,0,0,1,441.767,298.911Zm0.882,40.843h-2.208l-8.733-2.718a1.184,1.184,0,0,0-.334-0.049h-6.638l2.258-4.63,13.254,2.372ZM415.2,306.35a184.483,184.483,0,0,1,3.007,29.985l-15.835-7.461a1.139,1.139,0,0,0-.48-0.106h-6.964L386.6,304.632C399.25,301.87,412.251,305.447,415.2,306.35Zm-22.941,21.519,0.59,1.711-3.281,3.254h-9.359l-1.193-1.412A31.747,31.747,0,0,1,392.259,327.869Zm-12.3,7.178H390.03a1.118,1.118,0,0,0,.789-0.324l3.773-3.742h7.049l17.217,8.111a0.142,0.142,0,0,0,.02,0,1.1,1.1,0,0,0,.459.1H431.2l8.734,2.715a1.089,1.089,0,0,0,.334.052h99.3l8.6,2.112H390.29l-10.333-5.062v-3.97Zm-3.289,4.828,8.583,4.2h-8.583v-4.2Z"/>
      <path id="Shape_2_copy" data-name="Shape 2 copy" class="cls-6" d="M366.517,346.293h243.4a1.107,1.107,0,1,0,0-2.214h-16.99l-3.9-4.908a1.115,1.115,0,0,0-.482-0.351l-11.358-4.261v-5.041l12.962-11.181a1.1,1.1,0,0,0,.351-1.1,1.111,1.111,0,0,0-.821-0.813c-21.622-5.161-38.519,4.867-41.586,6.856a141.566,141.566,0,0,0-14.567-4.412l8.373-15.019a1.093,1.093,0,0,0,.048-0.973,1.112,1.112,0,0,0-.746-0.634,60.446,60.446,0,0,0-49.8,8.742c-20.535-39.093-55.885-40.088-56.244-40.094a1.11,1.11,0,0,0-1.073,1.463c2.788,8.148,5.082,16.151,6.969,23.661a66.391,66.391,0,0,0-28.333-6.957,1,1,0,0,0-.9.439,1.1,1.1,0,0,0-.182.979c0.031,0.106,1.54,5.3,3.105,13.421-4.644-1.321-17.38-4.268-29.87-1.136a1.1,1.1,0,0,0-.782,1.431l7.415,21.492a33.017,33.017,0,0,0-14.811,4.506,1.1,1.1,0,0,0-.248,1.64l1.391,1.642a1.083,1.083,0,0,0-.112.468v3.983l-1.68-.823a1.119,1.119,0,0,0-1.083.052,1.1,1.1,0,0,0-.526.94v5.986h-7.919A1.107,1.107,0,1,0,366.517,346.293Zm167.169-6.539h-11.8l6.11-10.958Zm2.51,0-10.444-20.1c3.2,0.4,10.352,1.688,21.727,5.754a21.171,21.171,0,0,1,2.2,10.885l-8.624-1.031a1.117,1.117,0,0,0-1.211.81l-1,3.68H536.2Zm5.554-2.178,8.2,0.98,2.035,4.18-10.912-2.679Zm33.926-1.216,11.789,4.423,2.619,3.3H560.306l14.65-12.636v3.881A1.108,1.108,0,0,0,575.676,336.36Zm11.332-18.245-29.982,25.858-2.223-.546-2.973-6.107a23.5,23.5,0,0,0-2.116-12.428C553.312,322.7,568.319,314.513,587.008,318.115Zm-47.767-14.069-7.981,14.316a45.03,45.03,0,0,0-7.407-1.1,1.035,1.035,0,0,0-.971.519,1.093,1.093,0,0,0-.046,1.093l3.926,7.555-7.43,13.326h-4.4l-22.31-26.918A58.051,58.051,0,0,1,539.241,304.046Zm-33.534,28.06-18.034,2.942a79.832,79.832,0,0,1,3.763-20.16Zm-20.262,2.805-15-4.269L488.771,315.9A80.639,80.639,0,0,0,485.445,334.911Zm-17.113-2.569,17.858,5.083a1.019,1.019,0,0,0,.227.032c0.018,0,.032.011,0.049,0.012H486.5a1.216,1.216,0,0,0,.181-0.014l20.667-3.373,4.7,5.672H459.117Zm21.3-19.979-34.056,27.391h-4.344A324.581,324.581,0,0,0,443.841,298a1.175,1.175,0,0,0-.029-0.117c-1.89-7.77-4.218-16.126-7.08-24.662C443.763,273.922,472.205,278.818,489.629,312.363Zm-47.862-13.452a322.555,322.555,0,0,1,7.218,40.843h-3.866l-3.1-6.488a1.114,1.114,0,0,0-.81-0.615l-14.653-2.621a1.127,1.127,0,0,0-1.2.607l-3.1,6.35h-1.811a186.589,186.589,0,0,0-3.142-31.541c0-.027-0.011-0.051-0.015-0.078-1.227-6.7-2.484-11.722-3.108-14.061A64.948,64.948,0,0,1,441.767,298.911Zm0.882,40.843h-2.208l-8.733-2.718a1.184,1.184,0,0,0-.334-0.049h-6.638l2.258-4.63,13.254,2.372ZM415.2,306.35a184.483,184.483,0,0,1,3.007,29.985l-15.835-7.461a1.139,1.139,0,0,0-.48-0.106h-6.964L386.6,304.632C399.25,301.87,412.251,305.447,415.2,306.35Zm-22.941,21.519,0.59,1.711-3.281,3.254h-9.359l-1.193-1.412A31.747,31.747,0,0,1,392.259,327.869Zm-12.3,7.178H390.03a1.118,1.118,0,0,0,.789-0.324l3.773-3.742h7.049l17.217,8.111a0.142,0.142,0,0,0,.02,0,1.1,1.1,0,0,0,.459.1H431.2l8.734,2.715a1.089,1.089,0,0,0,.334.052h99.3l8.6,2.112H390.29l-10.333-5.062v-3.97Zm-3.289,4.828,8.583,4.2h-8.583v-4.2Z"/>
      <path id="Shape_2_copy_2" data-name="Shape 2 copy 2" class="cls-6" d="M366.517,346.293h243.4a1.107,1.107,0,1,0,0-2.214h-16.99l-3.9-4.908a1.115,1.115,0,0,0-.482-0.351l-11.358-4.261v-5.041l12.962-11.181a1.1,1.1,0,0,0,.351-1.1,1.111,1.111,0,0,0-.821-0.813c-21.622-5.161-38.519,4.867-41.586,6.856a141.566,141.566,0,0,0-14.567-4.412l8.373-15.019a1.093,1.093,0,0,0,.048-0.973,1.112,1.112,0,0,0-.746-0.634,60.446,60.446,0,0,0-49.8,8.742c-20.535-39.093-55.885-40.088-56.244-40.094a1.11,1.11,0,0,0-1.073,1.463c2.788,8.148,5.082,16.151,6.969,23.661a66.391,66.391,0,0,0-28.333-6.957,1,1,0,0,0-.9.439,1.1,1.1,0,0,0-.182.979c0.031,0.106,1.54,5.3,3.105,13.421-4.644-1.321-17.38-4.268-29.87-1.136a1.1,1.1,0,0,0-.782,1.431l7.415,21.492a33.017,33.017,0,0,0-14.811,4.506,1.1,1.1,0,0,0-.248,1.64l1.391,1.642a1.083,1.083,0,0,0-.112.468v3.983l-1.68-.823a1.119,1.119,0,0,0-1.083.052,1.1,1.1,0,0,0-.526.94v5.986h-7.919A1.107,1.107,0,1,0,366.517,346.293Zm167.169-6.539h-11.8l6.11-10.958Zm2.51,0-10.444-20.1c3.2,0.4,10.352,1.688,21.727,5.754a21.171,21.171,0,0,1,2.2,10.885l-8.624-1.031a1.117,1.117,0,0,0-1.211.81l-1,3.68H536.2Zm5.554-2.178,8.2,0.98,2.035,4.18-10.912-2.679Zm33.926-1.216,11.789,4.423,2.619,3.3H560.306l14.65-12.636v3.881A1.108,1.108,0,0,0,575.676,336.36Zm11.332-18.245-29.982,25.858-2.223-.546-2.973-6.107a23.5,23.5,0,0,0-2.116-12.428C553.312,322.7,568.319,314.513,587.008,318.115Zm-47.767-14.069-7.981,14.316a45.03,45.03,0,0,0-7.407-1.1,1.035,1.035,0,0,0-.971.519,1.093,1.093,0,0,0-.046,1.093l3.926,7.555-7.43,13.326h-4.4l-22.31-26.918A58.051,58.051,0,0,1,539.241,304.046Zm-33.534,28.06-18.034,2.942a79.832,79.832,0,0,1,3.763-20.16Zm-20.262,2.805-15-4.269L488.771,315.9A80.639,80.639,0,0,0,485.445,334.911Zm-17.113-2.569,17.858,5.083a1.019,1.019,0,0,0,.227.032c0.018,0,.032.011,0.049,0.012H486.5a1.216,1.216,0,0,0,.181-0.014l20.667-3.373,4.7,5.672H459.117Zm21.3-19.979-34.056,27.391h-4.344A324.581,324.581,0,0,0,443.841,298a1.175,1.175,0,0,0-.029-0.117c-1.89-7.77-4.218-16.126-7.08-24.662C443.763,273.922,472.205,278.818,489.629,312.363Zm-47.862-13.452a322.555,322.555,0,0,1,7.218,40.843h-3.866l-3.1-6.488a1.114,1.114,0,0,0-.81-0.615l-14.653-2.621a1.127,1.127,0,0,0-1.2.607l-3.1,6.35h-1.811a186.589,186.589,0,0,0-3.142-31.541c0-.027-0.011-0.051-0.015-0.078-1.227-6.7-2.484-11.722-3.108-14.061A64.948,64.948,0,0,1,441.767,298.911Zm0.882,40.843h-2.208l-8.733-2.718a1.184,1.184,0,0,0-.334-0.049h-6.638l2.258-4.63,13.254,2.372ZM415.2,306.35a184.483,184.483,0,0,1,3.007,29.985l-15.835-7.461a1.139,1.139,0,0,0-.48-0.106h-6.964L386.6,304.632C399.25,301.87,412.251,305.447,415.2,306.35Zm-22.941,21.519,0.59,1.711-3.281,3.254h-9.359l-1.193-1.412A31.747,31.747,0,0,1,392.259,327.869Zm-12.3,7.178H390.03a1.118,1.118,0,0,0,.789-0.324l3.773-3.742h7.049l17.217,8.111a0.142,0.142,0,0,0,.02,0,1.1,1.1,0,0,0,.459.1H431.2l8.734,2.715a1.089,1.089,0,0,0,.334.052h99.3l8.6,2.112H390.29l-10.333-5.062v-3.97Zm-3.289,4.828,8.583,4.2h-8.583v-4.2Z"/>
    </g>
    <g id="empire">
      <path class="cls-1" d="M782.832,347.481v-9.4a2.269,2.269,0,0,1,2.421-1.745c2.081,0.054,3.9,0,3.9,0V318.62s-0.906-1.879,3.093-1.879h6.725v-16.78s-0.511-2.282,2.287-2.282h4.169v-78.26a2.309,2.309,0,0,1,2.556-2.55h0.538V196.331s-0.524-1.746,2.152-1.746h4.438v-7.517s-0.6-2.282,2.286-2.282h2.556v-4.7s-0.366-1.745,2.152-1.745h2.69V164.382s-0.488-2.013,2.959-2.013V146.394a0.637,0.637,0,0,1,1.21-.134v16.109a2.111,2.111,0,0,1,2.152,2.147v13.693h2.421s2.635,0.215,2.69,2.684v3.625h2.421a2.434,2.434,0,0,1,2.421,2.416v7.383h3.9a2.736,2.736,0,0,1,2.69,2.685v19.733h1.211a3.093,3.093,0,0,1,2.152,2.953v77.857h3.631a2.534,2.534,0,0,1,2.69,2.685v16.511h6.725a2.755,2.755,0,0,1,2.959,2.953V336.34h4.035a2.255,2.255,0,0,1,2.421,2.416v8.859Z"/>
      <path class="cls-6" d="M820.78,205.564a1.188,1.188,0,0,0-1.189,1.186v85.416a1.189,1.189,0,0,0,2.378,0V206.75A1.187,1.187,0,0,0,820.78,205.564Zm6.342,0a1.187,1.187,0,0,0-1.189,1.186v85.416a1.189,1.189,0,0,0,2.378,0V206.75A1.188,1.188,0,0,0,827.122,205.564Zm-9.513,122.578a1.187,1.187,0,0,0,1.189-1.186V304.817a1.189,1.189,0,0,0-2.378,0v22.139A1.188,1.188,0,0,0,817.609,328.142Zm6.342,0a1.188,1.188,0,0,0,1.189-1.186V304.817a1.189,1.189,0,0,0-2.378,0v22.139A1.187,1.187,0,0,0,823.951,328.142Zm6.341,0a1.187,1.187,0,0,0,1.189-1.186V304.817a1.189,1.189,0,0,0-2.378,0v22.139A1.188,1.188,0,0,0,830.292,328.142Zm9.513-28.464a1.188,1.188,0,0,0,1.189-1.186V222.563a1.189,1.189,0,0,0-2.378,0v75.929A1.187,1.187,0,0,0,839.805,299.678Zm-31.708,0a1.187,1.187,0,0,0,1.189-1.186V222.563a1.189,1.189,0,0,0-2.378,0v75.929A1.188,1.188,0,0,0,808.1,299.678Zm194.753,45.069H869.53V333.282a1.187,1.187,0,0,0-1.189-1.186h-5.152V314.305A1.189,1.189,0,0,0,862,313.119h-8.324v-17.79a1.187,1.187,0,0,0-1.189-1.186h-5.152v-77.9a1.187,1.187,0,0,0-1.189-1.186h-1.982V194.1a1.187,1.187,0,0,0-1.189-1.186h-5.152v-8.3a1.188,1.188,0,0,0-1.189-1.186h-3.567v-5.111a1.189,1.189,0,0,0-1.189-1.186h-3.567V162.5a1.188,1.188,0,0,0-1.189-1.186H825.14V146.681a1.189,1.189,0,0,0-2.378,0v14.634H820.78a1.188,1.188,0,0,0-1.189,1.186v14.627h-3.567a1.189,1.189,0,0,0-1.189,1.186v5.111h-3.567a1.188,1.188,0,0,0-1.189,1.186v8.3h-5.152a1.187,1.187,0,0,0-1.189,1.186v20.953h-1.982a1.187,1.187,0,0,0-1.189,1.186v77.9h-5.153a1.188,1.188,0,0,0-1.189,1.186v17.79H785.9a1.189,1.189,0,0,0-1.189,1.186V332.1h-5.152a1.187,1.187,0,0,0-1.189,1.186v11.465H626.62a1.186,1.186,0,1,0,0,2.372h376.23A1.186,1.186,0,1,0,1002.85,344.747ZM860.811,315.492v16.6h-7.135v-16.6h7.135Zm-22.988,16.6V306H851.3V332.1H837.823ZM851.3,296.515v7.116h-3.963v-7.116H851.3ZM832.274,195.274v3.964H815.628v-3.964h16.646Zm-16.646,20.964V201.61h16.646v95.7H815.628V216.238Zm26.158-1.206h-7.134V195.285h7.134v19.747Zm-19.817-51.345h3.964v13.441h-3.964V163.687ZM817.213,179.5h13.476v3.924H817.213V179.5Zm-4.756,6.3h3.452c0.041,0,.075.023,0.115,0.023s0.075-.02.115-0.023h15.624c0.04,0,.074.023,0.115,0.023s0.074-.02.114-0.023h3.453v7.116h-1.928c-0.02,0-.035-0.011-0.054-0.011h-1.982v-3.537a1.189,1.189,0,0,0-2.378,0V192.9H825v-3.537a1.189,1.189,0,0,0-2.378,0V192.9H818.8v-3.537a1.189,1.189,0,0,0-2.378,0V192.9h-2.263c-0.019,0-.034.01-0.054,0.011h-1.646V185.8Zm-6.341,9.488h7.134v19.747h-7.134V195.285Zm-3.171,22.139h10.3v81.068a1.187,1.187,0,0,0,1.189,1.186h19.024a1.187,1.187,0,0,0,1.189-1.186V217.424h10.3v86.207h-8.323a1.187,1.187,0,0,0-1.189,1.186V332.1H812.457V304.817a1.188,1.188,0,0,0-1.189-1.186h-8.323V217.424ZM796.6,332.1V306h13.476V332.1H796.6Zm0-35.581h3.964v7.116H796.6v-7.116Zm-9.512,18.977h7.134v16.6h-7.134v-16.6Zm-6.341,29.255V334.468h86.4v10.279h-86.4Z"/>
      <path id="Shape_2_copy_3" data-name="Shape 2 copy 3" class="cls-6" d="M820.78,205.564a1.188,1.188,0,0,0-1.189,1.186v85.416a1.189,1.189,0,0,0,2.378,0V206.75A1.187,1.187,0,0,0,820.78,205.564Zm6.342,0a1.187,1.187,0,0,0-1.189,1.186v85.416a1.189,1.189,0,0,0,2.378,0V206.75A1.188,1.188,0,0,0,827.122,205.564Zm-9.513,122.578a1.187,1.187,0,0,0,1.189-1.186V304.817a1.189,1.189,0,0,0-2.378,0v22.139A1.188,1.188,0,0,0,817.609,328.142Zm6.342,0a1.188,1.188,0,0,0,1.189-1.186V304.817a1.189,1.189,0,0,0-2.378,0v22.139A1.187,1.187,0,0,0,823.951,328.142Zm6.341,0a1.187,1.187,0,0,0,1.189-1.186V304.817a1.189,1.189,0,0,0-2.378,0v22.139A1.188,1.188,0,0,0,830.292,328.142Zm9.513-28.464a1.188,1.188,0,0,0,1.189-1.186V222.563a1.189,1.189,0,0,0-2.378,0v75.929A1.187,1.187,0,0,0,839.805,299.678Zm-31.708,0a1.187,1.187,0,0,0,1.189-1.186V222.563a1.189,1.189,0,0,0-2.378,0v75.929A1.188,1.188,0,0,0,808.1,299.678Zm194.753,45.069H869.53V333.282a1.187,1.187,0,0,0-1.189-1.186h-5.152V314.305A1.189,1.189,0,0,0,862,313.119h-8.324v-17.79a1.187,1.187,0,0,0-1.189-1.186h-5.152v-77.9a1.187,1.187,0,0,0-1.189-1.186h-1.982V194.1a1.187,1.187,0,0,0-1.189-1.186h-5.152v-8.3a1.188,1.188,0,0,0-1.189-1.186h-3.567v-5.111a1.189,1.189,0,0,0-1.189-1.186h-3.567V162.5a1.188,1.188,0,0,0-1.189-1.186H825.14V146.681a1.189,1.189,0,0,0-2.378,0v14.634H820.78a1.188,1.188,0,0,0-1.189,1.186v14.627h-3.567a1.189,1.189,0,0,0-1.189,1.186v5.111h-3.567a1.188,1.188,0,0,0-1.189,1.186v8.3h-5.152a1.187,1.187,0,0,0-1.189,1.186v20.953h-1.982a1.187,1.187,0,0,0-1.189,1.186v77.9h-5.153a1.188,1.188,0,0,0-1.189,1.186v17.79H785.9a1.189,1.189,0,0,0-1.189,1.186V332.1h-5.152a1.187,1.187,0,0,0-1.189,1.186v11.465H626.62a1.186,1.186,0,1,0,0,2.372h376.23A1.186,1.186,0,1,0,1002.85,344.747ZM860.811,315.492v16.6h-7.135v-16.6h7.135Zm-22.988,16.6V306H851.3V332.1H837.823ZM851.3,296.515v7.116h-3.963v-7.116H851.3ZM832.274,195.274v3.964H815.628v-3.964h16.646Zm-16.646,20.964V201.61h16.646v95.7H815.628V216.238Zm26.158-1.206h-7.134V195.285h7.134v19.747Zm-19.817-51.345h3.964v13.441h-3.964V163.687ZM817.213,179.5h13.476v3.924H817.213V179.5Zm-4.756,6.3h3.452c0.041,0,.075.023,0.115,0.023s0.075-.02.115-0.023h15.624c0.04,0,.074.023,0.115,0.023s0.074-.02.114-0.023h3.453v7.116h-1.928c-0.02,0-.035-0.011-0.054-0.011h-1.982v-3.537a1.189,1.189,0,0,0-2.378,0V192.9H825v-3.537a1.189,1.189,0,0,0-2.378,0V192.9H818.8v-3.537a1.189,1.189,0,0,0-2.378,0V192.9h-2.263c-0.019,0-.034.01-0.054,0.011h-1.646V185.8Zm-6.341,9.488h7.134v19.747h-7.134V195.285Zm-3.171,22.139h10.3v81.068a1.187,1.187,0,0,0,1.189,1.186h19.024a1.187,1.187,0,0,0,1.189-1.186V217.424h10.3v86.207h-8.323a1.187,1.187,0,0,0-1.189,1.186V332.1H812.457V304.817a1.188,1.188,0,0,0-1.189-1.186h-8.323V217.424ZM796.6,332.1V306h13.476V332.1H796.6Zm0-35.581h3.964v7.116H796.6v-7.116Zm-9.512,18.977h7.134v16.6h-7.134v-16.6Zm-6.341,29.255V334.468h86.4v10.279h-86.4Z"/>
      <path id="Shape_2_copy_4" data-name="Shape 2 copy 4" class="cls-6" d="M820.78,205.564a1.188,1.188,0,0,0-1.189,1.186v85.416a1.189,1.189,0,0,0,2.378,0V206.75A1.187,1.187,0,0,0,820.78,205.564Zm6.342,0a1.187,1.187,0,0,0-1.189,1.186v85.416a1.189,1.189,0,0,0,2.378,0V206.75A1.188,1.188,0,0,0,827.122,205.564Zm-9.513,122.578a1.187,1.187,0,0,0,1.189-1.186V304.817a1.189,1.189,0,0,0-2.378,0v22.139A1.188,1.188,0,0,0,817.609,328.142Zm6.342,0a1.188,1.188,0,0,0,1.189-1.186V304.817a1.189,1.189,0,0,0-2.378,0v22.139A1.187,1.187,0,0,0,823.951,328.142Zm6.341,0a1.187,1.187,0,0,0,1.189-1.186V304.817a1.189,1.189,0,0,0-2.378,0v22.139A1.188,1.188,0,0,0,830.292,328.142Zm9.513-28.464a1.188,1.188,0,0,0,1.189-1.186V222.563a1.189,1.189,0,0,0-2.378,0v75.929A1.187,1.187,0,0,0,839.805,299.678Zm-31.708,0a1.187,1.187,0,0,0,1.189-1.186V222.563a1.189,1.189,0,0,0-2.378,0v75.929A1.188,1.188,0,0,0,808.1,299.678Zm194.753,45.069H869.53V333.282a1.187,1.187,0,0,0-1.189-1.186h-5.152V314.305A1.189,1.189,0,0,0,862,313.119h-8.324v-17.79a1.187,1.187,0,0,0-1.189-1.186h-5.152v-77.9a1.187,1.187,0,0,0-1.189-1.186h-1.982V194.1a1.187,1.187,0,0,0-1.189-1.186h-5.152v-8.3a1.188,1.188,0,0,0-1.189-1.186h-3.567v-5.111a1.189,1.189,0,0,0-1.189-1.186h-3.567V162.5a1.188,1.188,0,0,0-1.189-1.186H825.14V146.681a1.189,1.189,0,0,0-2.378,0v14.634H820.78a1.188,1.188,0,0,0-1.189,1.186v14.627h-3.567a1.189,1.189,0,0,0-1.189,1.186v5.111h-3.567a1.188,1.188,0,0,0-1.189,1.186v8.3h-5.152a1.187,1.187,0,0,0-1.189,1.186v20.953h-1.982a1.187,1.187,0,0,0-1.189,1.186v77.9h-5.153a1.188,1.188,0,0,0-1.189,1.186v17.79H785.9a1.189,1.189,0,0,0-1.189,1.186V332.1h-5.152a1.187,1.187,0,0,0-1.189,1.186v11.465H626.62a1.186,1.186,0,1,0,0,2.372h376.23A1.186,1.186,0,1,0,1002.85,344.747ZM860.811,315.492v16.6h-7.135v-16.6h7.135Zm-22.988,16.6V306H851.3V332.1H837.823ZM851.3,296.515v7.116h-3.963v-7.116H851.3ZM832.274,195.274v3.964H815.628v-3.964h16.646Zm-16.646,20.964V201.61h16.646v95.7H815.628V216.238Zm26.158-1.206h-7.134V195.285h7.134v19.747Zm-19.817-51.345h3.964v13.441h-3.964V163.687ZM817.213,179.5h13.476v3.924H817.213V179.5Zm-4.756,6.3h3.452c0.041,0,.075.023,0.115,0.023s0.075-.02.115-0.023h15.624c0.04,0,.074.023,0.115,0.023s0.074-.02.114-0.023h3.453v7.116h-1.928c-0.02,0-.035-0.011-0.054-0.011h-1.982v-3.537a1.189,1.189,0,0,0-2.378,0V192.9H825v-3.537a1.189,1.189,0,0,0-2.378,0V192.9H818.8v-3.537a1.189,1.189,0,0,0-2.378,0V192.9h-2.263c-0.019,0-.034.01-0.054,0.011h-1.646V185.8Zm-6.341,9.488h7.134v19.747h-7.134V195.285Zm-3.171,22.139h10.3v81.068a1.187,1.187,0,0,0,1.189,1.186h19.024a1.187,1.187,0,0,0,1.189-1.186V217.424h10.3v86.207h-8.323a1.187,1.187,0,0,0-1.189,1.186V332.1H812.457V304.817a1.188,1.188,0,0,0-1.189-1.186h-8.323V217.424ZM796.6,332.1V306h13.476V332.1H796.6Zm0-35.581h3.964v7.116H796.6v-7.116Zm-9.512,18.977h7.134v16.6h-7.134v-16.6Zm-6.341,29.255V334.468h86.4v10.279h-86.4Z"/>
    </g>
    <g id="pyramids">
      <g id="pyramid3">
        <g id="pyramid_body" data-name="pyramid body">
          <path class="cls-1" d="M104.979,346.5l-59.962.245,69.669-88.6,31.324,34.96"/>
          <path id="Shape_9_copy" data-name="Shape 9 copy" class="cls-2" d="M103.791,345.958H41l69.669-88.6,32.976,36.773"/>
          <path class="cls-3" d="M110.669,258.576l-26.89,86.775"/>
        </g>
        <g id="pyramid_lines" data-name="pyramid lines">
          <path class="cls-2" d="M107,286.489h11"/>
          <path class="cls-2" d="M102.113,294.985h14.056"/>
          <path class="cls-2" d="M128.392,294.985h6.722"/>
          <path class="cls-2" d="M97.835,313.189H111.28"/>
          <path class="cls-2" d="M116.169,313.189h6.112"/>
          <path class="cls-2" d="M94.169,326.539h22"/>
          <path class="cls-2" d="M92.335,340.5H107"/>
          <path class="cls-2" d="M115.558,340.5h63.558"/>
          <path class="cls-2" d="M53.223,340.5H77.057"/>
          <path class="cls-2" d="M70.946,336.248"/>
          <path id="Shape_31_copy" data-name="Shape 31 copy" class="cls-2" d="M65.445,327.146h7.334"/>
          <path class="cls-2" d="M81.335,300.446h11"/>
          <path class="cls-2" d="M94.169,292.557h2.445"/>
          <path class="cls-2" d="M95.391,284.062h3.667"/>
          <path id="Shape_31_copy_2" data-name="Shape 31 copy 2" class="cls-2" d="M59.945,332H71.557"/>
        </g>
      </g>
      <g id="pyramid2">
        <g id="pyramid_body-2" data-name="pyramid body">
          <path id="Shape_9_copy_2" data-name="Shape 9 copy 2" class="cls-4" d="M276.757,272.258l66.929,74.752-126.075.516Z"/>
          <path class="cls-1" d="M280.688,271.474l66.929,74.752-126.075.516Z"/>
          <path id="Shape_9_copy-2" data-name="Shape 9 copy" class="cls-2" d="M277.041,270.69l67.447,75.268H217.894Z"/>
          <path class="cls-3" d="M277.041,273.29l-22.195,71.884"/>
        </g>
        <g id="pyramid_lines-2" data-name="pyramid lines">
          <path class="cls-2" d="M279.635,291.827h11.933"/>
          <path class="cls-2" d="M278.6,312.448h24.385"/>
          <path class="cls-2" d="M287.417,329.461h8.82"/>
          <path class="cls-2" d="M271.333,335.131h57.59"/>
          <path class="cls-2" d="M261.476,341.318h12.452"/>
          <path class="cls-2" d="M281.191,341.318h53.958"/>
          <path class="cls-2" d="M252.137,307.293h9.339"/>
          <path class="cls-2" d="M263.032,300.591h2.076"/>
          <path class="cls-2" d="M264.07,293.374h3.113"/>
          <path id="Shape_31_copy_2-2" data-name="Shape 31 copy 2" class="cls-2" d="M233.978,334.1h9.858"/>
        </g>
      </g>
      <g id="pyramid1">
        <g id="pyramid_body-3" data-name="pyramid body">
          <path class="cls-1" d="M197.453,232.273l101.42,113.685-191.046.784Z"/>
          <path id="Shape_9_copy-3" data-name="Shape 9 copy" class="cls-2" d="M192.736,231.489L294.942,345.958H103.11Z"/>
          <path class="cls-3" d="M192.736,233.057L158.143,345.174"/>
        </g>
        <g id="pyramid_lines-3" data-name="pyramid lines">
          <path class="cls-2" d="M192.736,252.658h12.579"/>
          <path class="cls-2" d="M188.805,258.146h9.434"/>
          <path class="cls-2" d="M196.667,263.634H214.75"/>
          <path class="cls-2" d="M188.019,269.122H202.17"/>
          <path class="cls-2" d="M181.729,280.1h18.083"/>
          <path class="cls-2" d="M215.536,280.1h8.648"/>
          <path class="cls-2" d="M191.95,287.939h16.51"/>
          <path class="cls-2" d="M213.963,287.939h7.076"/>
          <path class="cls-2" d="M195.1,295h36.951"/>
          <path class="cls-2" d="M176.226,303.62h17.3"/>
          <path class="cls-2" d="M199.812,303.62h7.862"/>
          <path class="cls-2" d="M186.446,312.244h39.31"/>
          <path class="cls-2" d="M240.694,312.244H251.7"/>
          <path class="cls-2" d="M171.509,320.869h28.3"/>
          <path class="cls-2" d="M208.46,320.869h13.365"/>
          <path class="cls-2" d="M184.088,329.493h87.268"/>
          <path class="cls-2" d="M169.15,338.9h18.869"/>
          <path class="cls-2" d="M199.026,338.9H280.79"/>
          <path class="cls-2" d="M118.834,338.9H149.5"/>
          <path class="cls-2" d="M141.633,333.413"/>
          <path class="cls-2" d="M140.847,333.413h14.938"/>
          <path id="Shape_31_copy-2" data-name="Shape 31 copy" class="cls-2" d="M134.557,321.653h9.435"/>
          <path class="cls-2" d="M143.992,315.38h17.3"/>
          <path class="cls-2" d="M157.357,302.052h6.29"/>
          <path class="cls-2" d="M156.571,287.939h14.152"/>
          <path class="cls-2" d="M164.433,282.451H172.3"/>
          <path class="cls-2" d="M171.509,276.963h3.145"/>
          <path class="cls-2" d="M173.081,265.986H177.8"/>
          <path id="Shape_31_copy_2-3" data-name="Shape 31 copy 2" class="cls-2" d="M127.482,327.925h14.937"/>
        </g>
      </g>
    </g>
    <g id="clouds">
      <path class="cls-1" d="M430.62,160.952s2.859-6.841,10.164-4.228c0,0,4.515-18.45,22.022-7.612,0,0,.5-22.58,25.41-23.679,0,0,18.917-.484,24.563,18.605,0,0,16.169,1.48,14.4,16.914H430.62Z"/>
      <path id="Shape_47_copy" data-name="Shape 47 copy" class="cls-2" d="M428.079,156.724s2.859-6.841,10.164-4.229c0,0,4.515-18.449,22.022-7.611,0,0,.5-22.58,25.41-23.68,0,0,18.917-.483,24.563,18.606,0,0,16.169,1.48,14.4,16.914H428.079Z"/>
    </g>
    <g id="cloud2">
      <path class="cls-1" d="M786.688,116.748s2.859-6.841,10.164-4.229c0,0,4.515-18.449,22.022-7.611,0,0,.5-22.58,25.41-23.68,0,0,18.917-.484,24.563,18.605,0,0,16.169,1.48,14.4,16.914H786.688Z"/>
      <path id="Shape_47_copy-2" data-name="Shape 47 copy" class="cls-2" d="M784.147,112.519s2.859-6.841,10.164-4.228c0,0,4.515-18.45,22.022-7.612,0,0,.5-22.58,25.41-23.679,0,0,18.917-.484,24.563,18.605,0,0,16.169,1.48,14.4,16.914H784.147Z"/>
    </g>
    <g id="paper_rocket" data-name="paper rocket">
      <path class="cls-1" d="M229.881,119.87l-75.443,19.535,18.136,5.788,4.352,22.429,14.508-10.853,10.881,7.959Z"/>
      <path class="cls-2" d="M171.123,141.576L224.8,117.7"/>
      <path class="cls-2" d="M175.475,162.558l8.705-13.024L224.8,117.7"/>
      <path class="cls-2" d="M189.258,153.875l-4.352-3.617"/>
      <path id="Shape_43_copy" data-name="Shape 43 copy" class="cls-2" d="M227.705,116.976l-75.443,19.535L170.4,142.3l4.353,22.429,14.508-10.853,10.881,7.959Z"/>
    </g>
    <g id="paper_rocket_copy" data-name="paper rocket copy">
      <path class="cls-1" d="M977.516,140.661L1051.99,159.9l-17.9,5.7-4.3,22.085L1015.47,177l-10.74,7.836Z"/>
      <path class="cls-2" d="M1029.07,166.309l-53.7-22.085"/>
      <path class="cls-2" d="M1024.78,186.97l-8.6-12.824-40.1-29.21"/>
      <path class="cls-2" d="M1011.17,176.283l4.3-3.562"/>
      <path id="Shape_43_copy-2" data-name="Shape 43 copy" class="cls-2" d="M973.219,142.086l74.471,19.236-17.9,5.7-4.3,22.086-14.32-10.687-10.74,7.837Z"/>
    </g>
  </g>
  <g id="boat">
    <path class="cls-5" d="M588.193,367.91s26.673,13.009,54.248-.784c0,0,26.345,13.851,52.675,0,0,0,14.792,8.753,26.731,0"/>
    <path id="Shape_508_copy_2" data-name="Shape 508 copy 2" class="cls-5" d="M469.478,380.455m106.922-.784s14.792,8.753,26.731,0"/>
    <path id="Shape_508_copy" data-name="Shape 508 copy" class="cls-5" d="M619.641,379.671s26.673,13.008,54.248-.784c0,0,26.345,13.851,52.675,0"/>
    <g id="boat-2" data-name="boat">
      <path class="cls-4" d="M640.082,306.756s-18.054,15.7-23.586,44.69c0,0,22.35-2.294,32.234,1.568C648.73,353.014,628.465,334.51,640.082,306.756Z"/>
      <path id="Shape_48_copy_2" data-name="Shape 48 copy 2" class="cls-1" d="M642.441,306.756s-18.055,15.7-23.586,44.69c0,0,22.349-2.294,32.234,1.568C651.089,353.014,630.824,334.51,642.441,306.756Z"/>
      <path id="Shape_48_copy" data-name="Shape 48 copy" class="cls-5" d="M639.3,305.188s-18.054,15.7-23.586,44.69c0,0,18.5-1.514,25.116-.074,1.009,0.219,1-6.6.449-7.128C634.605,336.236,632.464,321.512,639.3,305.188Z"/>
      <path class="cls-1" d="M645.586,305.972s13.986,34.613,22.8,41.554c0,0-19.758-.305-24.372,3.136C644.013,350.662,642.673,312.086,645.586,305.972Z"/>
      <path id="Shape_49_copy" data-name="Shape 49 copy" class="cls-5" d="M642.441,304.4s13.986,34.613,22.8,41.554c0,0-19.759-.305-24.372,3.136C640.869,349.094,639.528,310.518,642.441,304.4Z"/>
      <path class="cls-5" d="M642,300v52"/>
      <path class="cls-1" d="M616.5,356.15a14.19,14.19,0,0,0,5.5,9.408h56.606v-3.136h-3.931v-3.136l-3.145-4.7-2.358,3.92h-3.145v-1.568h-7.076v-1.568H639.3l-3.145,3.136h-0.786l-1.572-2.352H616.5"/>
      <path id="Shape_54_copy" data-name="Shape 54 copy" class="cls-5" d="M613.352,353.8a14.191,14.191,0,0,0,5.5,9.408h56.606V360.07H671.53v-3.136l-3.145-4.7-2.358,3.92h-3.145v-1.568h-7.076v-1.568H636.151l-3.145,3.136H632.22l-1.572-2.352h-17.3"/>
      <path class="cls-5" d="M613.352,356.934h58.964"/>
      <path class="cls-5" d="M616.5,360.854h59.751"/>
      <path class="cls-5" d="M615.71,352.23h-3.931a13.91,13.91,0,0,0,2.359,6.272"/>
      <rect class="cls-7" x="637.938" y="301.25" width="7.062" height="1.594"/>
      <path class="cls-5" d="M641.869,295.779L642,309"/>
      <path class="cls-5" d="M641.082,299.7l6.29-.784-6.29-2.352V299.7Z"/>
      <g id="stripes">
        <path class="cls-5" d="M640.869,342.037a68.455,68.455,0,0,1,18.868-2.352"/>
        <path class="cls-5" d="M641.655,334.2s10.813-2.055,13.365-1.568"/>
        <path class="cls-5" d="M640.082,342.821a54.942,54.942,0,0,0-21.227-3.92"/>
        <path class="cls-5" d="M635.365,331.845s-8.57-2.287-12.579-2.352"/>
        <path class="cls-5" d="M635.365,322.437a60.144,60.144,0,0,0-7.862-1.568"/>
        <path class="cls-5" d="M640.869,327.141a37.126,37.126,0,0,1,10.22-2.352"/>
        <path class="cls-5" d="M640.869,319.3s4.757-1.873,7.075-1.568"/>
      </g>
    </g>
  </g>
  <g id="dotted_lines" data-name="dotted lines">
    <path class="cls-8" d="M172.338,165.86s-51.492,22.113-45.362-9.532c0,0,7.666-17.031,29.756,3.013,0,0,29.011,30.5-51.914,51.361,0,0-24.6,4.116-29.728,12.335,0,0-7.507,9.261,4.99,34.37"/>
    <path class="cls-8" d="M1026.92,189.819s45.28,20.761,2.87,72.669c0,0-13.95,13.311-24.35,20.661,0,0-15.032,11.2-6.442,22.8,0,0,17.742,19.852,52.992-8.55"/>
  </g>
</svg>
