<?xml version="1.0" encoding="UTF-8"?>
<svg width="18px" height="14px" viewBox="0 0 18 14" version="1.1" xmlns="http://www.w3.org/2000/svg" xmlns:xlink="http://www.w3.org/1999/xlink">
    <!-- Generator: Sketch 51.1 (57501) - http://www.bohemiancoding.com/sketch -->
    <title>Number List</title>
    <desc>Created with Sketch.</desc>
    <defs></defs>
    <g id="Page-1" stroke="none" stroke-width="1" fill="none" fill-rule="evenodd">
        <g id="Mailtag.io-Edit-Ping-Sequence" transform="translate(-1069.000000, -354.000000)">
            <g id="Mailtag.io-Inbox">
                <g id="Ping-1" transform="translate(401.000000, 255.000000)">
                    <g id="Editor" transform="translate(129.000000, 0.000000)">
                        <g id="Editor-header" transform="translate(0.000000, 25.000000)">
                            <g id="Text-controls" transform="translate(35.000000, 64.000000)">
                                <g id="Icons" transform="translate(12.000000, 9.000000)">
                                    <g id="Number-List" transform="translate(492.000000, 1.000000)">
                                        <path d="M5.36842105,1.75 L17,1.75" id="Shape" stroke="#2B9EFF" stroke-width="1.8" stroke-linecap="round" stroke-linejoin="round"></path>
                                        <path d="M1.66640579,3.05413097 L0.957933868,3.05413097 L0.957933868,1.15540625 L0.404128351,1.59870355 L0,1.26524983 L1.04774017,0.4375 L1.66640579,0.4375 L1.66640579,3.05413097 Z M2.68421053,8.28477757 L0.1796126,8.28477757 L0.1796126,7.84932624 C1.54167482,7.05688328 1.94081393,6.78619732 1.94081393,6.46451255 C1.94081393,6.23697943 1.67638427,6.12321286 1.40197613,6.12321286 C1.02279397,6.12321286 0.733418118,6.24090241 0.508902367,6.4252827 L0.104774017,6.05652212 C0.429074545,5.76229825 0.923009196,5.62891676 1.38700841,5.62891676 C2.09548034,5.62891676 2.65926433,5.94275555 2.65926433,6.46451255 C2.65926433,6.91173284 2.19027588,7.30010835 1.32713755,7.79440445 L2.68421053,7.79440445 L2.68421053,8.28477757 Z M1.35707298,13.5625 C0.743396596,13.5625 0.289375856,13.3781197 0.0449031501,13.1427406 L0.414106828,12.770057 C0.643611818,12.9583603 1.00782626,13.0682039 1.33212679,13.0682039 C1.73625514,13.0682039 1.96077089,12.9308994 1.96077089,12.7347502 C1.96077089,12.526832 1.75621209,12.4326803 1.29221287,12.4326803 C1.15251419,12.4326803 0.927998435,12.4366033 0.878106046,12.4405263 L0.878106046,11.9383842 C0.937976913,11.9423072 1.1674819,11.9423072 1.29221287,11.9423072 C1.66141655,11.9423072 1.90588926,11.8560015 1.90588926,11.6637753 C1.90588926,11.4558571 1.63647036,11.3538595 1.28722364,11.3538595 C0.967912346,11.3538595 0.67853649,11.4480111 0.444042262,11.6245454 L0.0898063001,11.2753998 C0.359225201,11.0360977 0.778321268,10.8595634 1.36206222,10.8595634 C2.14038349,10.8595634 2.61935042,11.1341723 2.61935042,11.5696236 C2.61935042,11.8991544 2.26012522,12.1149186 1.89092154,12.1659174 C2.23018979,12.1933783 2.66924281,12.4012965 2.66924281,12.7935949 C2.66924281,13.2447382 2.1553512,13.5625 1.35707298,13.5625 Z" id="1-2-3" fill="#2B9EFF"></path>
                                        <path d="M5.36842105,7 L17,7" id="Shape" stroke="#2B9EFF" stroke-width="1.8" stroke-linecap="round" stroke-linejoin="round"></path>
                                        <path d="M5.36842105,12.25 L17,12.25" id="Shape" stroke="#2B9EFF" stroke-width="1.8" stroke-linecap="round" stroke-linejoin="round"></path>
                                    </g>
                                </g>
                            </g>
                        </g>
                    </g>
                </g>
            </g>
        </g>
    </g>
</svg>