<?xml version="1.0" standalone="no"?>
<!DOCTYPE svg PUBLIC "-//W3C//DTD SVG 20010904//EN"
 "http://www.w3.org/TR/2001/REC-SVG-20010904/DTD/svg10.dtd">
<svg version="1.0" xmlns="http://www.w3.org/2000/svg"
 width="128.000000pt" height="128.000000pt" viewBox="0 0 128.000000 128.000000"
 preserveAspectRatio="xMidYMid meet">
<metadata>
Created by potrace 1.11, written by Peter Selinger 2001-2013
</metadata>
<g transform="translate(0.000000,128.000000) scale(0.100000,-0.100000)"
fill="#000000" stroke="none">
<path d="M676 1264 c-27 -8 -65 -26 -85 -39 -21 -12 -162 -148 -315 -301
l-278 -279 6 -45 c6 -43 17 -56 279 -317 273 -273 298 -292 351 -279 13 3 148
131 300 283 346 347 341 339 340 548 -2 339 -8 391 -52 414 -28 15 -80 19
-302 25 -158 4 -204 2 -244 -10z m334 -58 c52 -2 111 -5 130 -5 60 -2 60 -4
66 -172 3 -85 7 -181 8 -213 4 -68 -13 -141 -42 -188 -12 -18 -49 -61 -84 -95
l-63 -63 -278 278 -278 278 64 63 c109 108 164 131 302 124 44 -2 123 -5 175
-7z m-310 -511 l235 -236 -65 5 c-36 3 -108 8 -160 12 -52 3 -117 7 -144 9
-60 4 -78 21 -81 77 -7 119 -16 269 -20 316 -3 28 -4 52 -3 52 2 0 109 -106
238 -235z"/>
</g>
</svg>
